<?xml version="1.0" encoding="UTF-8" standalone="no"?>
<svg
   id="svg"
   version="1.1"
   width="300"
   height="300"
   viewBox="0 0 300 300.00001"
   sodipodi:docname="icon-focussed.svg"
   inkscape:version="1.1.2 (b8e25be8, 2022-02-05)"
   xmlns:inkscape="http://www.inkscape.org/namespaces/inkscape"
   xmlns:sodipodi="http://sodipodi.sourceforge.net/DTD/sodipodi-0.dtd"
   xmlns="http://www.w3.org/2000/svg"
   xmlns:svg="http://www.w3.org/2000/svg">
  <defs
     id="defs5939" />
  <sodipodi:namedview
     id="namedview5937"
     pagecolor="#c1ebff"
     bordercolor="#666666"
     borderopacity="1.0"
     inkscape:pageshadow="2"
     inkscape:pageopacity="1"
     inkscape:pagecheckerboard="0"
     showgrid="false"
     inkscape:zoom="1.2020896"
     inkscape:cx="172.20014"
     inkscape:cy="124.36677"
     inkscape:window-width="1440"
     inkscape:window-height="847"
     inkscape:window-x="0"
     inkscape:window-y="25"
     inkscape:window-maximized="1"
     inkscape:current-layer="g23102"
     fit-margin-left="5"
     lock-margins="true"
     fit-margin-top="5"
     fit-margin-right="5"
     fit-margin-bottom="5" />
  <g
     inkscape:groupmode="layer"
     id="layer2"
     inkscape:label="Layer 2"
     style="display:inline;opacity:1"
     transform="translate(-64.835573,-113.20894)">
    <g
       id="g39346"
       inkscape:label="sail"
       style="display:none">
      <g
         id="g16975"
         transform="translate(1.9974773,42.513757)"
         style="display:inline;fill:#ae2326;fill-opacity:1">
        <path
           style="fill:#ae2326;fill-opacity:1;stroke:#000000;stroke-width:0.468104;stroke-dasharray:0, 5.14915"
           d="m 170.92843,128.9362 c -3.24529,0.1005 -6.53847,-0.10326 -9.75613,0.30719 -0.78893,1.69278 1.06713,3.73137 1.39531,5.475 11.50811,25.63968 12.2365,55.82763 1.48876,81.76778 -0.6154,1.60612 -1.39666,3.39178 -1.05645,4.99203 0.37469,1.89713 3.19783,0.79895 4.54573,1.17118 2.1803,0.50295 4.38821,0.98947 6.72976,0.85858 4.05247,-0.19886 8.42126,0.67279 12.29246,-0.71413 2.9009,-3.61094 3.6006,-8.54744 5.09429,-12.84726 7.95903,-26.43655 6.47105,-56.05619 -6.33038,-80.74158 -4.63514,-0.64004 -9.63383,-0.10137 -14.40335,-0.26879 z"
           id="path16815" />
        <path
           style="fill:#ae2326;fill-opacity:1;stroke:#000000;stroke-width:0.468104;stroke-dasharray:0, 5.14915"
           d="m 219.52075,128.93437 c -3.18539,0.0878 -6.41456,-0.11024 -9.57602,0.22399 -0.31965,2.22551 1.83749,4.34227 2.42555,6.52786 6.54398,15.39111 8.99382,32.28837 7.72768,48.91459 -0.43169,12.811 -4.38423,25.17059 -8.8952,37.10779 -0.63622,2.23514 2.7781,1.57635 4.031,1.78007 6.70867,0.11809 13.4191,0.0397 20.12848,0.0631 2.18575,-3.83894 3.31785,-8.51971 4.91784,-12.75401 5.5802,-16.33437 6.67388,-34.07146 4.16271,-51.09324 -1.76632,-10.33805 -4.98805,-20.52772 -9.95527,-29.77374 -1.74319,-2.19586 -5.42154,-0.43737 -7.94703,-1.00006 -2.33991,3.9e-4 -4.67983,-0.002 -7.01974,0.004 z"
           id="path16854" />
      </g>
      <g
         id="g39337"
         style="display:inline;fill:#ffccaa;fill-opacity:1">
        <path
           style="display:inline;fill:#ffccaa;fill-opacity:1;stroke:#000000;stroke-width:0.468104;stroke-dasharray:0, 5.14915"
           d="m 136.82794,171.30234 c 1.36857,3.45584 3.91033,6.7355 5.32045,10.35163 9.68985,21.85559 9.83409,47.2328 2.29539,69.7335 -1.33818,4.43927 -3.65104,8.52264 -5.32012,12.83081 0.88391,1.57468 3.59104,0.52929 5.11197,0.95827 7.10725,0.0202 14.33752,0.31635 21.36701,-0.11806 -0.41822,-5.26096 2.91446,-10.00223 4.03031,-15.05402 5.13829,-16.73408 5.37081,-34.78783 2.09618,-51.90317 -1.6031,-8.81864 -5.43745,-16.96949 -8.19548,-25.42665 -0.14179,-2.18329 -3.29977,-1.22868 -4.69658,-1.53962 -7.31931,0.0657 -14.76892,-0.2797 -22.00913,0.16731 z"
           id="path25079" />
        <path
           style="display:inline;fill:#ffccaa;fill-opacity:1;stroke:#000000;stroke-width:0.468104;stroke-dasharray:0, 5.14915"
           d="m 187.02846,171.30234 c 1.50591,4.44888 4.00936,8.80678 5.34094,13.45138 5.2637,15.44115 6.93424,31.94376 4.84124,48.10615 -1.21205,10.53825 -3.84397,20.98265 -7.97131,30.75813 -1.49423,3.10026 4.32919,1.0559 6.06598,1.63889 5.96971,-0.1831 12.17153,0.36597 17.99778,-0.26969 5.33193,-13.35803 9.12817,-27.53931 9.40523,-42.0231 0.63443,-16.74101 -2.65216,-33.58404 -9.68444,-48.80146 -0.2572,-3.34609 -3.04376,-3.39545 -5.7554,-3.0587 -6.72841,0.13356 -13.59047,-0.26617 -20.24002,0.1984 z"
           id="path25155" />
        <path
           style="display:inline;fill:#ffccaa;fill-opacity:1;stroke:#000000;stroke-width:0.468104;stroke-dasharray:0, 5.14915"
           d="m 235.55862,171.30234 c 1.25358,3.23596 3.38228,6.45934 4.5119,9.9143 8.38966,20.87661 9.20628,44.49109 3.52267,66.14623 -1.66561,5.77786 -3.68664,11.45026 -5.6968,17.10958 0.82085,1.43585 3.30097,0.35942 4.73038,0.75377 4.40824,-0.0959 8.9817,0.33733 13.27884,-0.22259 8.35594,-12.98293 14.76517,-27.71176 15.20185,-43.35408 0.86534,-14.08137 -2.58647,-28.24496 -9.60528,-40.46399 -1.9899,-3.33977 -3.65736,-7.06026 -6.02537,-10.05053 -6.62132,0.12275 -13.37543,-0.28702 -19.91819,0.16731 z"
           id="path25194" />
      </g>
    </g>
    <path
       style="display:inline;fill:#d68a66;fill-opacity:1;stroke:#000000;stroke-width:0.468104;stroke-dasharray:0, 5.14915"
       d="m 318.12872,204.82573 c -9.69458,0.15644 -16.42782,10.01316 -16.17885,19.10268 0.98391,16.52272 12.91034,30.43923 12.64704,47.16149 0.27617,7.82582 -1.31538,15.83233 -5.7191,22.44046 -4.53644,7.61704 -12.18747,12.51747 -19.76058,16.69562 -1.98845,2.38507 -1.49708,5.95096 -3.12496,8.60598 -3.52935,7.85634 -11.72048,14.21132 -20.62676,13.2212 -7.19247,-0.0613 -13.92927,-4.26948 -17.39939,-10.51954 -0.64805,-1.71292 -2.26495,-0.94991 -2.7492,0.40776 -3.98528,5.83411 -10.5448,10.10889 -17.73493,10.10081 -7.57516,0.41449 -15.30633,-3.25104 -19.20599,-10.02401 -0.59287,-1.40353 -2.45571,-1.56217 -2.91102,0.0512 -5.54799,9.71967 -18.95809,12.58623 -28.63938,7.72097 -4.43899,-1.87956 -7.60308,-5.66949 -10.10356,-9.6583 -1.74172,-0.12753 -2.14286,2.86606 -3.46872,3.94597 -4.29028,5.23833 -10.99278,8.7543 -17.88213,7.97788 -9.66726,-0.0302 -17.68721,-8.02119 -19.75554,-17.12668 0.11112,-3.48109 -3.05779,-3.81063 -5.70373,-4.43083 -7.93099,-2.40369 -16.1524,-6.00215 -20.819048,-13.20014 -5.913778,-8.4116 -4.632634,-19.47013 -2.079716,-28.81616 1.677054,-6.92115 4.339484,-14.64951 1.355618,-21.58458 -2.771102,-5.76256 -11.438837,-7.56754 -15.828688,-2.58189 -3.119505,2.49466 -3.846181,8.15703 0.12434,10.21418 3.115704,2.30156 6.791625,-2.85029 9.873159,-0.25873 2.414331,3.80048 1.57907,8.75541 1.445455,12.97983 -0.87642,11.12216 -6.742415,21.28535 -6.544994,32.57678 -1.002525,8.89813 1.414816,17.88647 6.118724,25.44037 10.69204,17.44047 30.75321,27.29155 50.6661,29.29708 25.46106,1.05811 50.96379,0.78351 76.44359,0.83853 21.2589,-0.23922 42.55562,0.0385 63.78013,-1.30206 20.00891,-4.14018 38.83304,-17.35875 46.51694,-36.73247 4.53085,-10.89301 4.32615,-23.33751 1.36592,-34.60679 -3.89992,-13.22971 -11.45052,-25.28392 -13.91313,-38.87666 -1.42216,-8.8348 7.21313,-16.40613 15.57618,-16.26913 3.82641,-0.15821 7.84367,-0.24868 11.17781,1.94556 1.70025,1.25714 3.99398,0.4482 4.50551,-1.62373 1.78863,-2.54443 0.10507,-5.73658 -2.50601,-6.85334 -4.24037,-1.98278 -8.24198,-4.27432 -11.40546,-7.83709 -4.7357,-4.68353 -10.47914,-9.03895 -17.53563,-8.42222 z m 6.90363,9.45443 c 3.83627,-0.14792 5.70902,5.50849 2.37252,7.59023 -2.94012,2.33674 -7.68135,-0.89707 -6.48581,-4.5439 0.45657,-1.84448 2.25311,-3.07439 4.11329,-3.04633 z"
       id="path12488"
       sodipodi:nodetypes="ccccccccccccccccccccccccccccccccccccccccccc"
       inkscape:label="fillship" />
    <path
       style="display:inline;fill:#7e4d3b;fill-opacity:1;stroke:#000000;stroke-width:0.615017;stroke-dasharray:0, 6.76519"
       d="m 198.60904,275.87138 c 0,0 0.36286,10.16132 -0.41803,14.78323 -4.15676,-1.63603 -8.49715,-2.8594 -13.04268,-2.42403 -5.49479,0.0379 -10.80243,3.01324 -14.66072,6.776 -1.63227,1.42726 -2.57905,4.32201 -4.26788,5.2781 -3.4544,-5.18409 -7.90345,-10.38738 -14.34839,-11.67812 -9.27364,-2.3657 -20.0675,1.43271 -24.58627,10.1694 -0.82886,1.67256 -2.20703,3.57806 -4.27149,2.21742 -7.131,-1.93786 -15.04768,-5.5618 -17.19406,-13.3586 -3.27273,-10.84874 4.1252,-21.26325 3.52074,-32.21032 0.51917,-5.55386 -0.30161,-11.46203 -4.26548,-15.68294 -4.29967,-5.70817 -11.405699,-9.24006 -18.60067,-8.01685 -11.742371,0.93817 -21.175309,15.94029 -14.133383,26.30881 2.786688,4.52618 7.577041,8.0488 13.033078,7.93636 1.281313,2.13396 -1.255268,4.89194 -1.67448,7.08471 -6.878851,16.01887 -9.315105,34.97312 -1.827033,51.23862 8.521928,20.08048 28.750588,33.29649 49.850448,36.77843 27.53547,5.49296 55.73443,3.73747 83.62382,3.91866 27.30827,-0.66569 54.99948,0.95996 81.91011,-4.66722 11.40882,-1.96158 20.03322,-10.56895 27.99906,-18.30849 9.93585,-10.04217 17.86575,-22.86924 18.78445,-37.2674 1.70176,-17.06525 -4.84704,-33.42581 -11.47298,-48.76465 -1.56852,-4.89758 -4.83408,-9.8372 -4.1547,-15.11906 1.90947,-4.0798 7.47694,-3.89758 11.10273,-2.67028 3.6191,2.01276 8.65467,4.69914 12.30275,1.19641 6.95943,-5.05795 10.73422,-15.86331 4.86969,-23.1172 -3.44483,-4.83042 -10.20467,-4.95079 -13.77845,-9.68357 -6.67099,-7.45197 -16.35025,-13.16032 -26.66734,-11.82642 -13.37033,1.11793 -23.82932,13.74067 -23.73822,26.93343 -0.79949,10.55522 3.04024,20.5602 7.21853,30.02927 4.72717,10.86424 8.02201,24.36299 1.5827,35.24784 -3.63603,5.53877 -8.63801,10.61332 -14.77363,13.17001 -3.23979,-2.78167 -5.33068,-6.88451 -9.30093,-8.91775 -9.72641,-6.79621 -24.04393,-2.32938 -29.85956,7.54958 -0.74874,2.59677 -1.8798,-0.30253 -2.73154,-1.18439 -4.15615,-5.35713 -10.17378,-9.92584 -17.30096,-9.49673 -6.63049,-0.37862 -12.82357,2.92343 -17.36583,7.55078 v -20.07815 z m 120.36316,-70.8411 c 10.51267,0.11114 16.39324,10.12438 24.90579,14.70516 2.73048,1.35151 7.53739,3.8695 5.51474,7.65168 -0.49253,1.81581 -1.90772,3.33445 -3.83785,1.94115 -9.13427,-4.62433 -22.59584,-2.0179 -26.79529,8.04687 -2.41226,7.9887 2.01889,15.95986 4.53884,23.37139 5.881,14.03452 12.7483,28.84165 10.36211,44.44026 -2.23552,18.67053 -15.99202,34.4984 -32.48179,42.63679 -11.73641,6.53957 -25.37259,6.91339 -38.45164,6.79115 -39.76708,0.18354 -79.58736,0.52694 -119.32309,-0.41756 -18.52012,-2.50698 -37.3683,-10.80769 -48.045817,-26.82291 -6.17415,-8.36244 -8.696909,-18.8631 -7.560173,-29.11096 0.470548,-12.33973 7.151746,-23.63642 6.445454,-36.15053 -0.240743,-2.75768 0.276185,-6.8617 -2.458867,-8.47451 -3.576203,-0.64587 -8.32947,2.96953 -10.731569,-1.1027 -3.199988,-5.88081 4.733021,-12.61113 10.418054,-10.42166 4.481034,1.08544 7.844593,5.2489 7.531559,9.88712 0.668004,13.32148 -7.743521,26.35915 -3.147159,39.64218 3.793555,11.60967 15.938038,17.12472 26.843408,20.08226 3.17458,0.87997 2.45058,5.54766 4.26181,8.01754 3.68091,8.86333 13.62156,13.93363 22.98746,12.358 7.05036,-0.60785 12.31155,-6.12905 16.16462,-11.57722 3.62536,4.75096 7.95283,9.53818 14.11057,10.77962 8.25618,2.00516 18.05034,0.43758 23.49917,-6.63305 1.61181,-1.40986 2.97821,-5.30629 4.71221,-1.81413 4.2514,5.18735 10.22363,9.41359 17.2146,9.14628 6.30778,0.80618 12.57407,-1.77365 16.71237,-6.55257 2.05182,-1.35534 4.53714,-6.98111 5.9772,-2.71713 6.34894,9.97218 21.5992,13.13339 30.78901,5.19288 5.32612,-3.95405 8.22678,-10.38713 9.52344,-16.68961 5.20339,-3.96394 11.45475,-6.64431 15.82708,-11.70815 11.61987,-11.68032 12.97748,-30.30223 7.18746,-45.10586 -3.3791,-10.75564 -9.72402,-21.21102 -9.2211,-32.73706 0.77307,-8.48605 7.56906,-16.64407 16.52739,-16.65472 z m -52.60439,92.65018 c 7.98465,-0.20973 13.80469,8.55556 11.63728,15.96402 -1.60421,8.5804 -13.07192,12.215 -19.44151,6.35918 -3.82995,-2.7139 -4.43369,-7.48384 -3.97599,-11.76941 -0.001,-5.8281 6.28197,-10.74705 11.78022,-10.55379 z m -39.73588,0.0132 c 8.79479,-0.3646 14.69704,9.99326 11.40065,17.72138 -2.9954,8.26178 -15.23441,10.03619 -20.58386,3.11232 -6.89477,-7.37073 -0.89048,-21.06857 9.18321,-20.8337 z m -40.23317,0.0192 c 8.57008,-0.40956 15.42667,9.44391 11.89554,17.23729 -2.534,7.53723 -13.13758,10.5387 -19.14241,5.2865 -6.29506,-4.27148 -5.99679,-13.62979 -0.98259,-18.76402 2.05165,-2.37738 5.09789,-3.73164 8.22946,-3.75977 z m -41.02356,0.0721 c 5.64076,-0.53992 10.96495,3.38131 12.27271,8.89253 2.60645,7.32608 -3.13062,16.08701 -11.00184,16.11657 -8.49264,0.95764 -14.62791,-9.04344 -11.99163,-16.55861 1.23995,-4.9082 5.54353,-8.70052 10.72076,-8.45049 z"
       id="path39161"
       inkscape:label="border"
       sodipodi:nodetypes="cccccccccccccccccccccccccccccccccccccccccccccccccccccccccccccccccccccccccccccccccccccccccccc" />
    <path
       style="display:inline;fill:#7e4d3b;fill-opacity:1;stroke:#000000;stroke-width:0.615017;stroke-dasharray:0, 6.76519"
       d="m 325.02267,214.07416 c -3.85028,0.0225 -5.98696,5.4399 -2.53814,7.68291 3.09736,2.86032 8.82986,-1.66689 6.06248,-5.21203 -0.6365,-1.41598 -1.84886,-2.64765 -3.52434,-2.47088 z"
       id="path39200"
       inkscape:label="eye" />
    <g
       id="g39332"
       inkscape:label="shield"
       style="display:inline">
      <path
         style="display:inline;fill:#f2b765;fill-opacity:1;stroke:#000000;stroke-width:0.579371;stroke-dasharray:0, 6.37308"
         d="m 80.696695,184.11674 c -8.062708,-0.23877 -13.264462,8.71946 -11.284162,15.99608 1.410732,7.9456 11.496115,12.68698 18.279618,8.00823 7.82248,-4.48372 7.942547,-16.93122 0.440187,-21.79432 -2.151137,-1.52125 -4.800016,-2.32425 -7.435643,-2.20999 z"
         id="path33701"
         transform="translate(64.835573,113.20894)" />
      <path
         style="display:inline;fill:#f2b765;fill-opacity:1;stroke:#000000;stroke-width:0.579371;stroke-dasharray:0, 6.37308"
         d="m 121.43261,184.13824 c -7.27669,0.2124 -12.89685,7.89871 -11.98574,14.93692 0.52192,6.94723 8.13176,12.42699 14.92333,10.49997 8.40262,-1.13982 12.974,-11.66912 8.56836,-18.75715 -2.23995,-4.12564 -6.78571,-6.85121 -11.50595,-6.67974 z"
         id="path33740"
         transform="translate(64.835573,113.20894)" />
      <path
         style="display:inline;fill:#f2b765;fill-opacity:1;stroke:#000000;stroke-width:0.579371;stroke-dasharray:0, 6.37308"
         d="m 161.43752,184.162 c -10.31123,-0.0155 -16.15677,14.60148 -8.57288,21.66645 4.82841,5.84023 14.60891,5.10219 19.02872,-0.81134 6.12562,-7.22893 0.85985,-19.65974 -8.41899,-20.73855 -0.67403,-0.0954 -1.35627,-0.13607 -2.03685,-0.11656 z"
         id="path33779"
         transform="translate(64.835573,113.20894)" />
      <path
         style="display:inline;fill:#f2b765;fill-opacity:1;stroke:#000000;stroke-width:0.579371;stroke-dasharray:0, 6.37308"
         d="m 201.13238,184.32043 c -7.38767,-0.40465 -12.90685,7.12761 -11.8228,14.10633 0.22727,6.8235 6.78053,12.44596 13.58241,11.33848 8.98469,-0.36777 13.80633,-11.98396 9.30276,-19.27655 -2.16231,-3.97608 -6.57936,-6.29643 -11.06237,-6.16826 z"
         id="path33818"
         transform="translate(64.835573,113.20894)" />
    </g>
    <g
       id="g23102"
       transform="translate(-0.62089825,-7.9998154)">
      <circle
         style="fill:#ffccaa;fill-opacity:1;stroke:#7e4d3b;stroke-width:13;stroke-miterlimit:4;stroke-dasharray:none;stroke-dashoffset:6.4;stroke-opacity:1"
         id="path18706"
         cx="204.60591"
         cy="207.2972"
         r="71.44944" />
      <ellipse
         style="display:inline;fill:#ae2326;fill-opacity:0;stroke:#ae2326;stroke-width:13;stroke-miterlimit:4;stroke-dasharray:none;stroke-dashoffset:6.4;stroke-opacity:1"
         id="path18706-6"
         cx="204.60591"
         cy="207.2972"
         rx="41.600014"
         ry="41.60001" />
      <ellipse
         style="display:inline;fill:#ffccaa;fill-opacity:1;stroke:#ae2326;stroke-width:13;stroke-miterlimit:4;stroke-dasharray:none;stroke-dashoffset:6.4;stroke-opacity:1"
         id="path18706-6-6"
         cx="204.60591"
         cy="207.2972"
         rx="10.947372"
         ry="10.947371" />
    </g>
  </g>
</svg>
