<?xml version="1.0" encoding="UTF-8" standalone="no"?>
<svg
   viewBox="0 0 61 61.000001"
   version="1.1"
   id="svg239"
   sodipodi:docname="new-icon-simple-transparent.svg"
   inkscape:export-filename="/Users/konrad/Documents/mindshield-open-source/icon-1024.png"
   inkscape:export-xdpi="1611.541"
   inkscape:export-ydpi="1611.541"
   width="61"
   height="61"
   inkscape:version="1.1.2 (b8e25be8, 2022-02-05)"
   xmlns:inkscape="http://www.inkscape.org/namespaces/inkscape"
   xmlns:sodipodi="http://sodipodi.sourceforge.net/DTD/sodipodi-0.dtd"
   xmlns="http://www.w3.org/2000/svg"
   xmlns:svg="http://www.w3.org/2000/svg">
  <defs
     id="defs243" />
  <sodipodi:namedview
     id="namedview241"
     pagecolor="#c1ebff"
     bordercolor="#666666"
     borderopacity="1.0"
     inkscape:pageshadow="2"
     inkscape:pageopacity="0"
     inkscape:pagecheckerboard="false"
     showgrid="false"
     fit-margin-top="0"
     lock-margins="true"
     fit-margin-left="0"
     fit-margin-right="0"
     fit-margin-bottom="0"
     inkscape:zoom="3.2153213"
     inkscape:cx="35.92176"
     inkscape:cy="34.988727"
     inkscape:window-width="1223"
     inkscape:window-height="847"
     inkscape:window-x="217"
     inkscape:window-y="25"
     inkscape:window-maximized="0"
     inkscape:current-layer="g372" />
  <g
     data-name="Filled outline"
     id="Filled_outline"
     transform="translate(-1.9990399,-3.9990266)">
    <g
       id="g372"
       transform="translate(0.49959436,2.4995133)"
       inkscape:export-filename="/Users/konrad/Documents/mindshield-open-source/Shared (Extension)/Resources/images/popup-38.png"
       inkscape:export-xdpi="50.666668"
       inkscape:export-ydpi="50.666668">
      <g
         id="g1464"
         transform="translate(3.6950461e-4,-6.5004867)">
        <path
           d="M 58.893,39 H 54 a 2,2 0 0 0 -2,2 V 51 H 12 V 41 A 2,2 0 0 0 10,39 H 5.107 A 2.075,2.075 0 0 0 3.027,40.664 2,2 0 0 0 5,43 H 8.333 L 7,51 v 2 a 6,6 0 0 0 6,6 h 38 a 6,6 0 0 0 6,-6 V 51 L 55.667,43 H 59 A 2,2 0 0 0 60.973,40.664 2.075,2.075 0 0 0 58.893,39 Z"
           style="fill:#ad6327"
           id="path194" />
        <rect
           height="4"
           style="fill:#f9bb4b"
           width="4"
           x="30"
           y="51"
           id="rect196" />
        <rect
           height="4"
           style="fill:#ffd782"
           width="4"
           x="34"
           y="51"
           id="rect198" />
        <path
           d="m 38,51 h 4 v 2 a 2,2 0 0 1 -2,2 h -2 z"
           style="fill:#f9bb4b"
           id="path200" />
        <path
           d="m 22,51 h 4 v 4 h -2 a 2,2 0 0 1 -2,-2 z"
           style="fill:#f9bb4b"
           id="path202" />
        <rect
           height="4"
           style="fill:#ffd782"
           width="4"
           x="26"
           y="51"
           id="rect204" />
        <rect
           height="0"
           style="fill:#f4f4e6"
           width="0"
           x="17"
           y="54"
           id="rect206" />
        <rect
           height="0"
           style="fill:#f4f4e6"
           width="0"
           x="13"
           y="54"
           id="rect208" />
        <rect
           height="0"
           style="fill:#f4f4e6"
           width="0"
           x="45"
           y="54"
           id="rect210" />
        <rect
           height="0"
           style="fill:#f4f4e6"
           width="0.087089643"
           x="49"
           y="54"
           id="rect212" />
        <path
           d="M 41,42 H 21 c 0,0 2,-4 2,-12 0,-8 -2,-12 -2,-12 h 20 c 0,0 2,4 2,12 0,8 -2,12 -2,12 z"
           style="fill:#da1c4b"
           id="path214" />
        <path
           d="m 25,42 h -4 c 0,0 2,-4 2,-12 0,-8 -2,-12 -2,-12 h 4 c 0,0 2,4 2,12 0,8 -2,12 -2,12 z"
           style="fill:#da1c4b"
           id="path216" />
        <path
           d="m 29,42 h -4 c 0,0 2,-4 2,-12 0,-8 -2,-12 -2,-12 h 4 c 0,0 2,4 2,12 0,8 -2,12 -2,12 z"
           style="fill:#f4f4e6"
           id="path218" />
        <path
           d="m 33,42 h -4 c 0,0 2,-4 2,-12 0,-8 -2,-12 -2,-12 h 4 c 0,0 2,4 2,12 0,8 -2,12 -2,12 z"
           style="fill:#da1c4b"
           id="path220" />
        <path
           d="m 37,42 h -4 c 0,0 2,-4 2,-12 0,-8 -2,-12 -2,-12 h 4 c 0,0 2,4 2,12 0,8 -2,12 -2,12 z"
           style="fill:#f4f4e6"
           id="path222" />
        <path
           d="m 41,42 h -4 c 0,0 2,-4 2,-12 0,-8 -2,-12 -2,-12 h 4 c 0,0 2,4 2,12 0,8 -2,12 -2,12 z"
           style="fill:#da1c4b"
           id="path224" />
        <rect
           height="2"
           style="fill:#d3843d"
           width="25"
           x="19"
           y="17"
           id="rect226" />
        <path
           d="m 61.286,42.943 c 0.572139,-0.67484 0.818291,-1.567278 0.673,-2.44 C 61.678522,39.035961 60.386491,37.981183 58.893,38 H 54 c -0.661752,0.0026 -1.303687,0.226102 -1.824,0.635 l -8.2,-10.018 C 43.941216,25.354728 43.430845,22.114968 42.461,19 H 44 v -2 c -25,0 0,0 -25,0 v 2 h 1.334 c 1.068111,3.091315 1.623769,6.336428 1.645,9.607 L 11.894,38.692 C 11.362601,38.247662 10.692685,38.002899 10,38 H 5.107 C 3.6144456,37.980917 2.3227527,39.034156 2.041,40.5 1.7314997,42.331028 3.1429987,44.000594 5,44 H 7.153 L 6.014,50.835 C 6.0043776,50.889467 5.9996919,50.944691 6,51 v 2 c 0.00441,3.864166 3.1358343,6.995591 7,7 h 38 c 3.864166,-0.0044 6.995591,-3.135834 7,-7 v -2 c 3.08e-4,-0.05531 -0.0044,-0.110533 -0.014,-0.165 L 56.847,44 H 59 c 0.880161,6.7e-5 1.715949,-0.386385 2.286,-1.057 z m -17.322,-11.185 7.094,8.67 C 51.020344,40.616362 51.000921,40.807913 51,41 v 9 H 32 v -7 h 12 v -2 h -1.539 c 0.93451,-2.99433 1.440528,-6.105853 1.503,-9.242 z M 41,52 v 1 c 0,0.552285 -0.447715,1 -1,1 h -1 v -2 z m -4,0 v 2 h -2 v -2 z m -4,0 v 2 h -2 v -2 z m 5.461,-33 h 1.875 c 1.20213,3.53909 1.765561,7.263698 1.664,11 0.101561,3.736302 -0.46187,7.46091 -1.664,11 H 38.461 C 39.558174,37.439056 40.077759,33.725328 40,30 40.077759,26.274672 39.558174,22.560944 38.461,19 Z M 38,30 c 0.101561,3.736302 -0.46187,7.46091 -1.664,11 H 34.463 C 35.557698,37.438546 36.076566,33.725111 36,30 36.076566,26.274889 35.557698,22.561454 34.463,19 h 1.873 c 1.20213,3.53909 1.765561,7.263698 1.664,11 z M 30.461,19 h 1.873 c 1.205409,3.538333 1.769589,7.263413 1.666,11 0.103075,3.736475 -0.460744,7.461407 -1.665,11 H 30.461 C 31.558174,37.439056 32.077759,33.725328 32,30 32.077759,26.274672 31.558174,22.560944 30.461,19 Z m -3.998,0 h 1.873 c 1.20213,3.53909 1.765561,7.263698 1.664,11 0.101561,3.736302 -0.46187,7.46091 -1.664,11 H 26.463 C 27.557698,37.438546 28.076566,33.725111 28,30 28.076566,26.274889 27.557698,22.561454 26.463,19 Z m -4,0 h 1.871 c 1.205409,3.538333 1.769589,7.263413 1.666,11 0.103075,3.736475 -0.460744,7.461407 -1.665,11 H 22.463 C 23.557698,37.438546 24.076566,33.725111 24,30 24.076566,26.274889 23.557698,22.561454 22.463,19 Z M 21.977,31.438 C 21.951687,34.693275 21.397114,37.922766 20.335,41 H 19 v 2 h 11 v 7 H 13 V 41 C 12.9978,40.821415 12.97976,40.643379 12.946,40.468 Z M 29,52 v 2 h -2 v -2 z m -4,0 v 2 h -1 c -0.552285,0 -1,-0.447715 -1,-1 V 52 Z M 56,51.083 V 53 c -0.0033,2.760053 -2.239947,4.996694 -5,5 H 13 C 10.239947,57.996694 8.0033061,55.760053 8,53 V 51.083 L 9.32,43.165 C 9.4220481,42.555005 8.9514723,41.999563 8.333,42 H 5 C 4.3771182,42.000892 3.9049949,41.43827 4.014,40.825 4.1368593,40.325777 4.5932206,39.981314 5.107,40 H 10 c 0.552285,0 1,0.447715 1,1 v 10 c 0,0.552285 0.447715,1 1,1 h 9 v 1 c 0,1.656854 1.343146,3 3,3 h 16 c 1.656854,0 3,-1.343146 3,-3 v -1 h 9 c 0.552285,0 1,-0.447715 1,-1 V 41 c 0,-0.552285 0.447715,-1 1,-1 h 4.893 c 0.513779,-0.01869 0.970141,0.325777 1.093,0.825 C 60.095005,41.43827 59.622882,42.000892 59,42 h -3.333 c -0.618472,-4.37e-4 -1.089048,0.555005 -0.987,1.165 z"
           id="path228"
           sodipodi:nodetypes="cccccccccccccccccccccccccccccccccccccccccsscccccccccccccccccccccccccccccccccccccccccccccccccccccccccccccccccsscccccccccccccsssscsssscsssscccccc" />
        <rect
           height="0"
           width="0"
           x="17"
           y="54"
           id="rect230" />
        <rect
           height="0"
           width="0"
           x="13"
           y="54"
           id="rect232" />
        <rect
           height="0"
           width="0"
           x="45"
           y="54"
           id="rect234" />
        <rect
           height="0"
           width="0"
           x="49"
           y="54"
           id="rect236" />
      </g>
    </g>
  </g>
</svg>
