<?xml version="1.0" encoding="UTF-8" standalone="no"?>
<svg
   viewBox="0 0 72 72.000001"
   version="1.1"
   id="svg239"
   sodipodi:docname="new-icon.svg"
   inkscape:export-filename="/Users/konrad/Documents/mindshield-open-source/icon-new-1024.png"
   inkscape:export-xdpi="3200.5159"
   inkscape:export-ydpi="3200.5159"
   width="72"
   height="72"
   inkscape:version="1.1.2 (b8e25be8, 2022-02-05)"
   xmlns:inkscape="http://www.inkscape.org/namespaces/inkscape"
   xmlns:sodipodi="http://sodipodi.sourceforge.net/DTD/sodipodi-0.dtd"
   xmlns="http://www.w3.org/2000/svg"
   xmlns:svg="http://www.w3.org/2000/svg">
  <defs
     id="defs243" />
  <sodipodi:namedview
     id="namedview241"
     pagecolor="#c1ebff"
     bordercolor="#666666"
     borderopacity="1.0"
     inkscape:pageshadow="2"
     inkscape:pageopacity="1"
     inkscape:pagecheckerboard="0"
     showgrid="false"
     fit-margin-top="8"
     lock-margins="true"
     fit-margin-left="8"
     fit-margin-right="8"
     fit-margin-bottom="8"
     inkscape:zoom="4.2599844"
     inkscape:cx="16.666728"
     inkscape:cy="37.441452"
     inkscape:window-width="1440"
     inkscape:window-height="847"
     inkscape:window-x="0"
     inkscape:window-y="25"
     inkscape:window-maximized="0"
     inkscape:current-layer="svg239" />
  <g
     data-name="Filled outline"
     id="Filled_outline"
     transform="translate(4.0005545,4.0004867)">
    <path
       d="M 27,5 C 25,5 25,6 23,6 21,6 21,5 19,5 v 5 c 2,0 2,1 4,1 2,0 2,-1 4,-1 2,0 2,1 4,1 V 6 C 29,6 29,5 27,5 Z"
       style="fill:#da1c4b"
       id="path192" />
    <path
       d="M 58.893,39 H 54 a 2,2 0 0 0 -2,2 V 51 H 12 V 41 A 2,2 0 0 0 10,39 H 5.107 A 2.075,2.075 0 0 0 3.027,40.664 2,2 0 0 0 5,43 H 8.333 L 7,51 v 2 a 6,6 0 0 0 6,6 h 38 a 6,6 0 0 0 6,-6 V 51 L 55.667,43 H 59 A 2,2 0 0 0 60.973,40.664 2.075,2.075 0 0 0 58.893,39 Z"
       style="fill:#ad6327"
       id="path194" />
    <rect
       height="4"
       style="fill:#f9bb4b"
       width="4"
       x="30"
       y="51"
       id="rect196" />
    <rect
       height="4"
       style="fill:#ffd782"
       width="4"
       x="34"
       y="51"
       id="rect198" />
    <path
       d="m 38,51 h 4 v 2 a 2,2 0 0 1 -2,2 h -2 z"
       style="fill:#f9bb4b"
       id="path200" />
    <path
       d="m 22,51 h 4 v 4 h -2 a 2,2 0 0 1 -2,-2 z"
       style="fill:#f9bb4b"
       id="path202" />
    <rect
       height="4"
       style="fill:#ffd782"
       width="4"
       x="26"
       y="51"
       id="rect204" />
    <rect
       height="2"
       style="fill:#f4f4e6"
       width="2"
       x="17"
       y="54"
       id="rect206" />
    <rect
       height="2"
       style="fill:#f4f4e6"
       width="2"
       x="13"
       y="54"
       id="rect208" />
    <rect
       height="2"
       style="fill:#f4f4e6"
       width="2"
       x="45"
       y="54"
       id="rect210" />
    <rect
       height="2"
       style="fill:#f4f4e6"
       width="2"
       x="49"
       y="54"
       id="rect212" />
    <path
       d="M 41,42 H 21 c 0,0 2,-4 2,-12 0,-8 -2,-12 -2,-12 h 20 c 0,0 2,4 2,12 0,8 -2,12 -2,12 z"
       style="fill:#da1c4b"
       id="path214" />
    <path
       d="m 25,42 h -4 c 0,0 2,-4 2,-12 0,-8 -2,-12 -2,-12 h 4 c 0,0 2,4 2,12 0,8 -2,12 -2,12 z"
       style="fill:#da1c4b"
       id="path216" />
    <path
       d="m 29,42 h -4 c 0,0 2,-4 2,-12 0,-8 -2,-12 -2,-12 h 4 c 0,0 2,4 2,12 0,8 -2,12 -2,12 z"
       style="fill:#f4f4e6"
       id="path218" />
    <path
       d="m 33,42 h -4 c 0,0 2,-4 2,-12 0,-8 -2,-12 -2,-12 h 4 c 0,0 2,4 2,12 0,8 -2,12 -2,12 z"
       style="fill:#da1c4b"
       id="path220" />
    <path
       d="m 37,42 h -4 c 0,0 2,-4 2,-12 0,-8 -2,-12 -2,-12 h 4 c 0,0 2,4 2,12 0,8 -2,12 -2,12 z"
       style="fill:#f4f4e6"
       id="path222" />
    <path
       d="m 41,42 h -4 c 0,0 2,-4 2,-12 0,-8 -2,-12 -2,-12 h 4 c 0,0 2,4 2,12 0,8 -2,12 -2,12 z"
       style="fill:#da1c4b"
       id="path224" />
    <rect
       height="2"
       style="fill:#d3843d"
       width="25"
       x="19"
       y="17"
       id="rect226" />
    <path
       d="M 61.286,42.943 A 3.009,3.009 0 0 0 61.959,40.503 3.082,3.082 0 0 0 58.893,38 H 54 a 2.971,2.971 0 0 0 -1.824,0.635 l -8.2,-10.018 A 33.554,33.554 0 0 0 42.461,19 H 44 V 17 H 40.259 L 32,12.412 V 6 a 1,1 0 0 0 -1,-1 2.9,2.9 0 0 1 -1.554,-0.395 5.257,5.257 0 0 0 -4.9,0 3.248,3.248 0 0 1 -3.1,0 A 4.855,4.855 0 0 0 19,4 1,1 0 0 0 18,5 v 5 a 1,1 0 0 0 1,1 2.9,2.9 0 0 1 1.55,0.394 5.245,5.245 0 0 0 4.893,0 3.256,3.256 0 0 1 3.109,0 5.2,5.2 0 0 0 1.448,0.51 v 0.507 L 21.741,17 H 19 v 2 h 1.334 a 30.014,30.014 0 0 1 1.645,9.607 L 11.894,38.692 A 2.972,2.972 0 0 0 10,38 H 5.107 A 3.082,3.082 0 0 0 2.041,40.5 3,3 0 0 0 5,44 H 7.153 L 6.014,50.835 A 0.919,0.919 0 0 0 6,51 v 2 a 7.008,7.008 0 0 0 7,7 h 38 a 7.008,7.008 0 0 0 7,-7 V 51 A 0.919,0.919 0 0 0 57.986,50.835 L 56.847,44 H 59 a 3,3 0 0 0 2.286,-1.057 z m -17.322,-11.185 7.094,8.67 A 2.991,2.991 0 0 0 51,41 v 9 H 32 v -7 h 12 v -2 h -1.539 a 33.244,33.244 0 0 0 1.503,-9.242 z M 41,52 v 1 a 1,1 0 0 1 -1,1 h -1 v -2 z m -4,0 v 2 h -2 v -2 z m -4,0 v 2 h -2 v -2 z m 5.461,-33 h 1.875 A 31.537,31.537 0 0 1 42,30 31.537,31.537 0 0 1 40.336,41 H 38.461 A 34.885,34.885 0 0 0 40,30 34.885,34.885 0 0 0 38.461,19 Z M 38,30 A 31.537,31.537 0 0 1 36.336,41 H 34.463 A 34.992,34.992 0 0 0 36,30 34.992,34.992 0 0 0 34.463,19 h 1.873 A 31.537,31.537 0 0 1 38,30 Z M 32,14.7 36.141,17 H 32 Z M 30.461,19 h 1.873 A 31.412,31.412 0 0 1 34,30 31.451,31.451 0 0 1 32.335,41 H 30.461 A 34.885,34.885 0 0 0 32,30 34.885,34.885 0 0 0 30.461,19 Z M 29.446,9.605 a 5.257,5.257 0 0 0 -4.9,0 3.248,3.248 0 0 1 -3.1,0 A 5,5 0 0 0 20,9.085 V 6.147 a 4.639,4.639 0 0 1 0.55,0.247 5.245,5.245 0 0 0 4.893,0 3.256,3.256 0 0 1 3.109,0 A 5.04,5.04 0 0 0 30,6.915 V 9.854 A 4.709,4.709 0 0 1 29.446,9.605 Z M 30,14.7 V 17 H 25.859 Z M 26.463,19 h 1.873 A 31.537,31.537 0 0 1 30,30 31.537,31.537 0 0 1 28.336,41 H 26.463 A 34.992,34.992 0 0 0 28,30 34.992,34.992 0 0 0 26.463,19 Z m -4,0 h 1.871 A 31.412,31.412 0 0 1 26,30 31.451,31.451 0 0 1 24.335,41 H 22.463 A 34.992,34.992 0 0 0 24,30 34.992,34.992 0 0 0 22.463,19 Z M 21.977,31.438 A 30.023,30.023 0 0 1 20.335,41 H 19 v 2 h 11 v 7 H 13 V 41 A 3.008,3.008 0 0 0 12.946,40.468 Z M 29,52 v 2 h -2 v -2 z m -4,0 v 2 H 24 A 1,1 0 0 1 23,53 V 52 Z M 56,51.083 V 53 a 5.006,5.006 0 0 1 -5,5 H 13 A 5.006,5.006 0 0 1 8,53 V 51.083 L 9.32,43.165 A 1,1 0 0 0 8.333,42 H 5 A 1,1 0 0 1 4.014,40.825 1.085,1.085 0 0 1 5.107,40 H 10 a 1,1 0 0 1 1,1 v 10 a 1,1 0 0 0 1,1 h 9 v 1 a 3,3 0 0 0 3,3 h 16 a 3,3 0 0 0 3,-3 v -1 h 9 a 1,1 0 0 0 1,-1 V 41 a 1,1 0 0 1 1,-1 h 4.893 A 1.085,1.085 0 0 1 59.986,40.825 1,1 0 0 1 59,42 h -3.333 a 1,1 0 0 0 -0.987,1.165 z"
       id="path228" />
    <rect
       height="2"
       width="2"
       x="17"
       y="54"
       id="rect230" />
    <rect
       height="2"
       width="2"
       x="13"
       y="54"
       id="rect232" />
    <rect
       height="2"
       width="2"
       x="45"
       y="54"
       id="rect234" />
    <rect
       height="2"
       width="2"
       x="49"
       y="54"
       id="rect236" />
  </g>
</svg>
