<?xml version="1.0" encoding="UTF-8" standalone="no"?>
<!-- Created with Vectornator (http://vectornator.io/) -->

<svg
   height="772"
   stroke-miterlimit="10"
   style="clip-rule:evenodd;fill-rule:nonzero;stroke-linecap:round;stroke-linejoin:round"
   version="1.1"
   viewBox="0 0 772 771.99999"
   width="772"
   xml:space="preserve"
   id="svg4"
   xmlns="http://www.w3.org/2000/svg"
   xmlns:svg="http://www.w3.org/2000/svg">
<defs
   id="defs1" />
<g
   id="Layer-2"
   transform="translate(-125.99337,-203.474)">



<g
   id="g4"
   transform="translate(0,75.031209)"><path
     d="m 467.068,450.217 c -0.187,-0.445 -1.085,171.698 -1.085,171.698 l 43.499,-34.234 36.261,73.379 32.728,-16.757 -35.186,-73.11 58.302,-12.41 c 0,0 -134.333,-108.121 -134.519,-108.566 z"
     fill="#1c1c1d"
     fill-rule="nonzero"
     opacity="1"
     stroke="none"
     id="path1" /><path
     d="M 390.054,741.004 C 222.427,520.523 411.643,286.772 512.841,203.474 596.965,283.448 807.069,496.943 633.748,741.147 780.075,453.278 501.19,258.433 511.708,258.433 c 10.519,0 -260.638,180.989 -121.654,482.571 z"
     fill="#000000"
     fill-rule="nonzero"
     opacity="1"
     stroke="none"
     id="path2" /><path
     d="m 596.965,829.206 c 171.292,-25.292 247.134,-140.758 278.553,-250.299 31.419,-109.542 19.98,-214.496 19.999,-214.541 0.019,-0.044 -118.151,-13.862 -217.839,21.004 -0.319,-0.477 15.127,31.222 15.566,30.98 97.242,-20.656 164.684,-17.148 164.684,-17.148 0,0 9.628,85.406 -18.179,181.859 -27.807,96.454 -93.047,203.955 -242.784,248.145 z"
     fill="#1c1c1d"
     fill-rule="nonzero"
     opacity="1"
     stroke="none"
     id="path3" /><path
     d="M 425.967,829.206 C 254.675,803.914 178.832,688.448 147.414,578.907 115.995,469.365 128.42,363.503 128.401,363.459 c -0.018,-0.045 113.428,-12.261 216.853,21.911 0.318,-0.477 -15.127,31.222 -15.567,30.98 -97.241,-20.656 -164.683,-17.148 -164.683,-17.148 0,0 -9.628,85.406 18.179,181.859 27.806,96.454 93.047,203.955 242.784,248.145 z"
     fill="#000000"
     fill-rule="nonzero"
     opacity="1"
     stroke="none"
     id="path4" /></g>
</g>
</svg>
