<?xml version="1.0" encoding="UTF-8" standalone="no"?>
<!DOCTYPE svg PUBLIC "-//W3C//DTD SVG 1.1//EN" "http://www.w3.org/Graphics/SVG/1.1/DTD/svg11.dtd">
<!-- Created with Vectornator (http://vectornator.io/) -->
<svg height="100%" stroke-miterlimit="10" style="fill-rule:nonzero;clip-rule:evenodd;stroke-linecap:round;stroke-linejoin:round;" version="1.1" viewBox="0 0 1024 1024" width="100%" xml:space="preserve" xmlns="http://www.w3.org/2000/svg" xmlns:xlink="http://www.w3.org/1999/xlink">
<defs/>
<g id="Layer-2">
<path d="M467.068 450.217C466.881 449.772 465.983 621.915 465.983 621.915L509.482 587.681L545.743 661.06L578.471 644.303L543.285 571.193L601.587 558.783C601.587 558.783 467.254 450.662 467.068 450.217Z" fill="#1c1c1d" fill-rule="nonzero" opacity="1" stroke="none"/>
<path d="M390.054 741.004C222.427 520.523 411.643 286.772 512.841 203.474C596.965 283.448 807.069 496.943 633.748 741.147C780.075 453.278 501.19 258.433 511.708 258.433C522.227 258.433 251.07 439.422 390.054 741.004Z" fill="#000000" fill-rule="nonzero" opacity="1" stroke="none"/>
<path d="M596.965 829.206C768.257 803.914 844.099 688.448 875.518 578.907C906.937 469.365 895.498 364.411 895.517 364.366C895.536 364.322 777.366 350.504 677.678 385.37C677.359 384.893 692.805 416.592 693.244 416.35C790.486 395.694 857.928 399.202 857.928 399.202C857.928 399.202 867.556 484.608 839.749 581.061C811.942 677.515 746.702 785.016 596.965 829.206Z" fill="#1c1c1d" fill-rule="nonzero" opacity="1" stroke="none"/>
<path d="M425.967 829.206C254.675 803.914 178.832 688.448 147.414 578.907C115.995 469.365 128.42 363.503 128.401 363.459C128.383 363.414 241.829 351.198 345.254 385.37C345.572 384.893 330.127 416.592 329.687 416.35C232.446 395.694 165.004 399.202 165.004 399.202C165.004 399.202 155.376 484.608 183.183 581.061C210.989 677.515 276.23 785.016 425.967 829.206Z" fill="#000000" fill-rule="nonzero" opacity="1" stroke="none"/>
</g>
</svg>
