<?xml version="1.0" encoding="UTF-8" standalone="no"?>
<!-- Created with Vectornator (http://vectornator.io/) -->

<svg
   height="998.40009"
   stroke-miterlimit="10"
   style="clip-rule:evenodd;fill-rule:nonzero;stroke-linecap:round;stroke-linejoin:round"
   version="1.1"
   viewBox="0 0 994.40002 998.40009"
   width="994.40002"
   xml:space="preserve"
   id="svg4"
   xmlns="http://www.w3.org/2000/svg"
   xmlns:svg="http://www.w3.org/2000/svg">
<defs
   id="defs1"><filter
     style="color-interpolation-filters:sRGB"
     id="filter15"
     x="-0.020210526"
     y="-0.020210526"
     width="1.0467368"
     height="1.0509474"><feFlood
       result="flood"
       in="SourceGraphic"
       flood-opacity="0.498039"
       flood-color="rgb(0,0,0)"
       id="feFlood14" /><feGaussianBlur
       result="blur"
       in="SourceGraphic"
       stdDeviation="8.000000"
       id="feGaussianBlur14" /><feOffset
       result="offset"
       in="blur"
       dx="6.000000"
       dy="10.000000"
       id="feOffset14" /><feComposite
       result="comp1"
       operator="in"
       in="flood"
       in2="offset"
       id="feComposite14" /><feComposite
       result="fbSourceGraphic"
       operator="over"
       in="SourceGraphic"
       in2="comp1"
       id="feComposite15" /><feColorMatrix
       result="fbSourceGraphicAlpha"
       in="fbSourceGraphic"
       values="0 0 0 -1 0 0 0 0 -1 0 0 0 0 -1 0 0 0 0 1 0"
       id="feColorMatrix24" /><feFlood
       id="feFlood24"
       result="flood"
       in="fbSourceGraphic"
       flood-opacity="0.498039"
       flood-color="rgb(0,0,0)" /><feGaussianBlur
       id="feGaussianBlur24"
       result="blur"
       in="fbSourceGraphic"
       stdDeviation="0.000000" /><feOffset
       id="feOffset24"
       result="offset"
       in="blur"
       dx="0.000000"
       dy="0.000000" /><feComposite
       id="feComposite24"
       result="comp1"
       operator="in"
       in="flood"
       in2="offset" /><feComposite
       id="feComposite25"
       result="fbSourceGraphic"
       operator="over"
       in="fbSourceGraphic"
       in2="comp1" /><feColorMatrix
       result="fbSourceGraphicAlpha"
       in="fbSourceGraphic"
       values="0 0 0 -1 0 0 0 0 -1 0 0 0 0 -1 0 0 0 0 1 0"
       id="feColorMatrix25" /><feFlood
       id="feFlood25"
       result="flood"
       in="fbSourceGraphic"
       flood-opacity="0.498039"
       flood-color="rgb(0,0,0)" /><feGaussianBlur
       id="feGaussianBlur25"
       result="blur"
       in="fbSourceGraphic"
       stdDeviation="0.000000" /><feOffset
       id="feOffset25"
       result="offset"
       in="blur"
       dx="0.000000"
       dy="0.000000" /><feComposite
       id="feComposite26"
       result="comp1"
       operator="in"
       in="flood"
       in2="offset" /><feComposite
       id="feComposite27"
       result="comp2"
       operator="over"
       in="fbSourceGraphic"
       in2="comp1" /></filter></defs>
<g
   id="Layer-2"
   transform="translate(-143.98251,-221.46312)">



<rect
   style="fill:#ffffff;fill-opacity:1;stroke:none;stroke-width:8;stroke-linecap:round;stroke-dasharray:none;stroke-opacity:1;filter:url(#filter15)"
   id="rect4"
   width="950"
   height="950"
   x="163.18251"
   y="240.66312"
   ry="182.22903" /><g
   id="g4"
   transform="translate(115.20654,206.96128)"><path
     d="m 467.068,450.217 c -0.187,-0.445 -1.085,171.698 -1.085,171.698 l 43.499,-34.234 36.261,73.379 32.728,-16.757 -35.186,-73.11 58.302,-12.41 c 0,0 -134.333,-108.121 -134.519,-108.566 z"
     fill="#1c1c1d"
     fill-rule="nonzero"
     opacity="1"
     stroke="none"
     id="path1" /><path
     d="M 390.054,741.004 C 222.427,520.523 411.643,286.772 512.841,203.474 596.965,283.448 807.069,496.943 633.748,741.147 780.075,453.278 501.19,258.433 511.708,258.433 c 10.519,0 -260.638,180.989 -121.654,482.571 z"
     fill="#000000"
     fill-rule="nonzero"
     opacity="1"
     stroke="none"
     id="path2" /><path
     d="m 596.965,829.206 c 171.292,-25.292 247.134,-140.758 278.553,-250.299 31.419,-109.542 19.98,-214.496 19.999,-214.541 0.019,-0.044 -118.151,-13.862 -217.839,21.004 -0.319,-0.477 15.127,31.222 15.566,30.98 97.242,-20.656 164.684,-17.148 164.684,-17.148 0,0 9.628,85.406 -18.179,181.859 -27.807,96.454 -93.047,203.955 -242.784,248.145 z"
     fill="#1c1c1d"
     fill-rule="nonzero"
     opacity="1"
     stroke="none"
     id="path3" /><path
     d="M 425.967,829.206 C 254.675,803.914 178.832,688.448 147.414,578.907 115.995,469.365 128.42,363.503 128.401,363.459 c -0.018,-0.045 113.428,-12.261 216.853,21.911 0.318,-0.477 -15.127,31.222 -15.567,30.98 -97.241,-20.656 -164.683,-17.148 -164.683,-17.148 0,0 -9.628,85.406 18.179,181.859 27.806,96.454 93.047,203.955 242.784,248.145 z"
     fill="#000000"
     fill-rule="nonzero"
     opacity="1"
     stroke="none"
     id="path4" /></g>
</g>
</svg>
