<?xml version="1.0" encoding="UTF-8" standalone="no"?>
<svg
   width="350.34509pt"
   height="446.52701pt"
   version="1.1"
   viewBox="0 0 350.34509 446.52701"
   id="svg4"
   sodipodi:docname="calm.svg"
   inkscape:version="1.4 (e7c3feb1, 2024-10-09)"
   xmlns:inkscape="http://www.inkscape.org/namespaces/inkscape"
   xmlns:sodipodi="http://sodipodi.sourceforge.net/DTD/sodipodi-0.dtd"
   xmlns="http://www.w3.org/2000/svg"
   xmlns:svg="http://www.w3.org/2000/svg">
  <defs
     id="defs4" />
  <sodipodi:namedview
     id="namedview4"
     pagecolor="#ffffff"
     bordercolor="#000000"
     borderopacity="0.25"
     inkscape:showpageshadow="2"
     inkscape:pageopacity="0.0"
     inkscape:pagecheckerboard="0"
     inkscape:deskcolor="#d1d1d1"
     inkscape:document-units="pt"
     inkscape:zoom="0.26211222"
     inkscape:cx="932.80657"
     inkscape:cy="419.66758"
     inkscape:window-width="1728"
     inkscape:window-height="1051"
     inkscape:window-x="0"
     inkscape:window-y="38"
     inkscape:window-maximized="0"
     inkscape:current-layer="svg4" />
  <g
     id="g4"
     transform="translate(-424.84,-375.73)">
    <path
       d="m 775.18,550.89 c 0,-96.59 -78.59,-175.16 -175.18,-175.16 -96.59,0 -175.16,78.574 -175.16,175.16 0,72.254 44.004,134.43 106.6,161.16 5.1367,50.746 -9.6367,101.99 -9.7812,102.5 -0.9375,3.1914 0.88672,6.5156 4.0547,7.4531 0.5625,0.16797 1.1406,0.25391 1.7031,0.25391 2.5938,0 4.9805,-1.6914 5.7461,-4.2969 0.63672,-2.1484 14.555,-50.27 10.754,-101.27 17.641,5.9883 36.457,9.3711 56.09,9.3711 19.633,0 38.449,-3.3828 56.09,-9.3711 -3.7812,51.012 10.117,99.133 10.754,101.27 0.75781,2.6172 3.168,4.2969 5.7461,4.2969 0.5625,0 1.1289,-0.0859 1.7031,-0.25391 3.1797,-0.9375 4.9922,-4.2617 4.0547,-7.4531 -0.15625,-0.51562 -14.914,-51.672 -9.7695,-102.5 62.594,-26.734 106.6,-88.895 106.6,-161.16 z m -338.34,0 c 0,-89.977 73.199,-163.16 163.16,-163.16 89.977,0 163.18,73.199 163.18,163.16 0,89.965 -73.199,163.16 -163.18,163.16 -89.981,0 -163.16,-73.199 -163.16,-163.16 z"
       id="path1" />
    <path
       d="m 622.29,618.79 c -21.301,15.266 -43.754,0.55078 -44.711,-0.0977 -2.7227,-1.8242 -6.4688,-1.1289 -8.3164,1.6211 -1.8477,2.7344 -1.1523,6.4453 1.5859,8.3047 0.80469,0.55078 13.668,9.1211 30.422,9.1211 8.6758,0 18.383,-2.293 28.008,-9.2031 2.6992,-1.9336 3.3125,-5.6758 1.3789,-8.3633 -1.9258,-2.7148 -5.7031,-3.3164 -8.3672,-1.3828 z"
       id="path2" />
    <path
       d="m 584.95,529.4 c -1.9219,-2.6992 -5.6875,-3.3242 -8.3633,-1.3789 -21.324,15.254 -43.766,0.52734 -44.711,-0.0977 -2.7227,-1.8359 -6.4688,-1.1289 -8.3164,1.6211 -1.8477,2.7344 -1.1523,6.457 1.5859,8.3047 0.80469,0.55078 13.668,9.1094 30.422,9.1094 8.6758,0 18.395,-2.293 28.008,-9.1914 2.6836,-1.9219 3.3047,-5.6758 1.375,-8.3672 z"
       id="path3" />
    <path
       d="m 667.98,528.01 c -21.312,15.277 -43.766,0.53906 -44.711,-0.0859 -2.7344,-1.8242 -6.4805,-1.1289 -8.3164,1.6094 -1.8477,2.7461 -1.1523,6.457 1.5859,8.3164 0.79297,0.55078 13.668,9.1094 30.406,9.1094 8.6758,0 18.395,-2.293 28.02,-9.1914 2.6992,-1.9336 3.3125,-5.6758 1.3789,-8.375 -1.9453,-2.6914 -5.6992,-3.3008 -8.3633,-1.3828 z"
       id="path4" />
  </g>
</svg>
