<?xml version="1.0" encoding="UTF-8" standalone="no"?>
<svg
   width="425"
   height="425"
   viewBox="0 0 425 425"
   fill="none"
   version="1.1"
   id="svg3"
   sodipodi:docname="reddfocus_logo_v2.svg"
   inkscape:version="1.4 (e7c3feb1, 2024-10-09)"
   xmlns:inkscape="http://www.inkscape.org/namespaces/inkscape"
   xmlns:sodipodi="http://sodipodi.sourceforge.net/DTD/sodipodi-0.dtd"
   xmlns="http://www.w3.org/2000/svg"
   xmlns:svg="http://www.w3.org/2000/svg">
  <defs
     id="defs3" />
  <sodipodi:namedview
     id="namedview3"
     pagecolor="#ffffff"
     bordercolor="#000000"
     borderopacity="0.25"
     inkscape:showpageshadow="2"
     inkscape:pageopacity="0.0"
     inkscape:pagecheckerboard="0"
     inkscape:deskcolor="#d1d1d1"
     inkscape:zoom="0.91122442"
     inkscape:cx="172.84436"
     inkscape:cy="331.4222"
     inkscape:window-width="1728"
     inkscape:window-height="1055"
     inkscape:window-x="0"
     inkscape:window-y="34"
     inkscape:window-maximized="0"
     inkscape:current-layer="svg3" />
  <path
     d="m 211.429,317.244 c 0.039,-0.756 0.041,-11.093 0.001,-22.973 l -0.07,-21.599 h -3.642 c -6.97,0 -23.923,1.599 -39.585,3.734 -10.293,1.404 -11.614,1.625 -20.489,3.439 -14.273,2.916 -22.3127,4.859 -30.2346,7.31 -3.4362,1.063 -7.9338,2.422 -9.9948,3.021 -4.4516,1.294 -12.2076,3.718 -21.4888,6.715 -16.1885,5.227 -18.8391,5.979 -20.992,5.954 -2.6057,-0.031 -4.7186,-1.223 -5.77,-3.255 -1.4493,-2.801 -1.0215,-3.799 4.7905,-11.187 3.0264,-3.845 6.7895,-8.787 8.3636,-10.982 1.5752,-2.195 3.3493,-4.667 3.942,-5.493 1.7701,-2.469 12.8093,-19.619 15.9147,-24.725 8.5695,-14.091 21.5777,-39.401 28.4921,-55.434 13.3373,-30.933 24.9043,-67.72 29.9923,-95.385 0.733,-3.9832 1.407,-7.3662 1.501,-7.519 0.211,-0.3446 2.975,-19.5645 3.694,-25.6911 2.255,-19.1899 2.832,-26.9556 3.3,-44.4466 0.176,-6.5921 0.548,-12.73369 0.828,-13.64659 0.571,-1.87075 2.931,-3.57771 4.949,-3.58071 4.696,-0.00699 19.811,7.93347 35.935,18.8763 9.272,6.2935 11.856,8.2401 19.865,14.973 3.63,3.0504 4.594,3.1383 7.142,5.6033 0.396,0.3837 0.61,0.6078 0.999,0.9988 3.038,3.0501 3.116,3.4009 7.633,7.9525 8.075,8.1372 17.987,19.8871 23.408,27.7526 1.515,2.1974 3.973,5.7571 5.461,7.9105 9.881,14.2918 20.074,34.563 28.515,56.71 1.612,4.229 3.481,9.622 4.154,11.985 18.53799,65.02048 13.19945,116.21655 8.209,125.205 -1.657,1.5 -4.31,1.296 -16.501,-1.27 -18.77,-3.95 -36.513,-5.756 -53.404,-5.433 l -8.245,0.158 -0.13,21.544 -0.13,21.543 -3.368,0.598 c -1.853,0.329 -4.99,0.915 -6.971,1.304 -5.432,1.065 -6.161,0.985 -6.074,-0.667 z"
     fill="#1f53ba"
     stroke="#0d319c"
     stroke-width="3"
     id="path1"
     sodipodi:nodetypes="cccsccccccsccccccccccscccccccccccccccscc" />
  <path
     d="M 127.449,423.256 C 79.5809,422.928 82.3924,423.109 74.2557,419.824 61.5143,414.678 48.4251,401.615 40.1704,385.807 34.37945,374.714 29.5,358.615 29.5,350.598 c 0,-2.99 2.28082,-7.124 4.8175,-8.732 2.62363,-1.662 2.96544,-1.717 18.9201,-3.016 6.8714,-0.559 16.4295,-1.443 21.239,-1.965 4.8095,-0.523 11.3311,-1.214 14.4924,-1.536 13.0512,-1.336 48.603,-6.297 71.713,-10.007 8.52,-1.369 17.066,-2.719 18.99,-3.004 1.924,-0.283 5.747,-0.93 8.495,-1.438 2.749,-0.507 11.631,-2.352 14.243,-2.826 -1.875,0.454 5.422,-0.984 0,0 0.914,-0.222 2.998,-0.5 2.998,-0.5 0,0 5.023,-0.47 7.496,-0.998 6.247,-1.335 12.565,-3.31 17.468,-3.451 0,0 -0.039,0.058 2.022,-0.369 2.061,-0.429 6.559,-1.257 9.995,-1.842 3.436,-0.585 7.821,-1.392 9.745,-1.796 1.924,-0.401 11.032,-2.184 20.239,-3.961 9.208,-1.777 18.879,-3.671 21.489,-4.209 2.611,-0.537 6.885,-1.349 9.495,-1.804 2.611,-0.455 7.109,-1.349 9.995,-1.987 2.887,-0.64 7.271,-1.53 9.745,-1.981 2.474,-0.45 6.858,-1.357 9.745,-2.015 2.886,-0.658 7.833,-1.664 10.994,-2.235 3.162,-0.571 7.546,-1.464 9.745,-1.986 2.199,-0.52 6.247,-1.425 8.995,-2.01 4.764,-1.015 13.014,-2.816 19.49,-4.257 5.638,-1.255 9.367,-0.508 9.367,-0.508 0,0 1.89,0.298 2.877,0.951 1.401,0.926 1.765,2 2.448,3.533 1.274,2.861 0.521,8.002 0.521,8.002 0,0 -0.86,7.695 -2.469,12.436 -0.066,0.194 -1,3.496 -1,3.496 -0.438,1.988 -1.065,2.883 -1.499,4.994 -0.268,1.304 -0.993,2.042 -1.346,3.341 -0.238,0.873 -0.345,1.371 -0.635,2.228 -0.603,1.777 -1.517,4.419 -1.517,4.419 0,0 -7.514,19.286 -8.502,21.539 -0.482,1.098 -1.608,3.683 -2.503,5.743 -0.896,2.059 -3.291,6.956 -5.324,10.882 -2.032,3.925 -4.161,8.44 -4.161,8.44 0,0 -5.497,9.329 -6.861,10.974 -1.364,1.646 -6.132,6.844 -6.132,6.844 0,0 -3.657,4.31 -5.493,6.56 l -1.503,1.93 -3.498,3.995 -2.499,1.998 -4.69,2.905 -0.225,0.207 -2.581,1.882 c -6.949,4.785 -15.9,7.454 -19.74,8.783 -4.47,1.547 -11.888,3.42 -17.241,4.356 -4.237,0.74 -11.315,0.836 -65.716,0.89 -33.532,0.034 -80.646,-0.073 -104.695,-0.237 z"
     fill="#97302b"
     id="path2" />
  <path
     d="m 202.41,318.074 c -2.612,0.474 -11.494,2.319 -14.243,2.826 -2.748,0.508 -6.571,1.155 -8.495,1.438 -1.924,0.285 -10.47,1.635 -18.99,3.004 -23.11,3.71 -58.6618,8.671 -71.713,10.007 -3.1613,0.322 -9.6829,1.013 -14.4924,1.536 -4.8095,0.522 -14.3676,1.406 -21.239,1.965 -15.95466,1.299 -16.29647,1.354 -18.9201,3.016 -2.53668,1.608 -4.8175,5.742 -4.8175,8.732 0,8.017 4.87945,24.116 10.6704,35.209 8.2547,15.808 21.3439,28.871 34.0853,34.017 8.1367,3.285 5.3252,3.104 53.1933,3.432 24.049,0.164 71.163,0.271 104.695,0.237 54.401,-0.054 61.479,-0.15 65.716,-0.89 5.353,-0.936 12.771,-2.809 17.241,-4.356 3.84,-1.329 12.791,-3.998 19.74,-8.783 l 2.581,-1.882 0.225,-0.207 c 15.94112,-9.87398 28.75408,-31.7839 34.837,-43.646 2.033,-3.926 4.428,-8.823 5.324,-10.882 0.895,-2.06 2.021,-4.645 2.503,-5.743 0.988,-2.253 8.502,-21.539 8.502,-21.539 0,0 0.914,-2.642 1.517,-4.419 0.29,-0.857 0.397,-1.355 0.635,-2.228 0.353,-1.299 1.078,-2.037 1.346,-3.341 0.434,-2.111 1.061,-3.006 1.499,-4.994 0,0 0.934,-3.302 1,-3.496 1.609,-4.741 2.469,-12.436 2.469,-12.436 0,0 0.753,-5.141 -0.521,-8.002 -0.683,-1.533 -1.047,-2.607 -2.448,-3.533 -0.987,-0.653 -2.877,-0.951 -2.877,-0.951 0,0 -3.729,-0.747 -9.367,0.508 -6.476,1.441 -14.726,3.242 -19.49,4.257 -2.748,0.585 -6.796,1.49 -8.995,2.01 -2.199,0.522 -6.583,1.415 -9.745,1.986 -3.161,0.571 -8.108,1.577 -10.994,2.235 -2.887,0.658 -7.271,1.565 -9.745,2.015 -2.474,0.451 -6.858,1.341 -9.745,1.981 -2.886,0.638 -7.384,1.532 -9.995,1.987 -2.61,0.455 -6.884,1.267 -9.495,1.804 -2.61,0.538 -12.281,2.432 -21.489,4.209 -9.207,1.777 -18.315,3.56 -20.239,3.961 -1.924,0.404 -6.309,1.211 -9.745,1.796 -3.436,0.585 -7.934,1.413 -9.995,1.842 -2.061,0.427 -2.022,0.369 -2.022,0.369 -4.903,0.141 -11.221,2.116 -17.468,3.451 -2.473,0.528 -7.496,0.998 -7.496,0.998 0,0 -2.084,0.278 -2.998,0.5 z m 0,0 c 5.422,-0.984 -1.875,0.454 0,0 z"
     stroke="#82121c"
     stroke-width="3"
     id="path3"
     sodipodi:nodetypes="ccccccccscccccscccccccccccccccccccccccccccsccccccc" />
</svg>
