<?xml version="1.0" encoding="UTF-8" standalone="no"?>
<svg
   width="700"
   height="700"
   viewBox="0 0 700 700"
   fill="none"
   version="1.1"
   id="svg9"
   sodipodi:docname="reddfocus_logo_text.svg"
   inkscape:version="1.4 (e7c3feb1, 2024-10-09)"
   inkscape:export-filename="reddfocus_logo_text.png"
   inkscape:export-xdpi="140.43428"
   inkscape:export-ydpi="140.43428"
   xmlns:inkscape="http://www.inkscape.org/namespaces/inkscape"
   xmlns:sodipodi="http://sodipodi.sourceforge.net/DTD/sodipodi-0.dtd"
   xmlns="http://www.w3.org/2000/svg"
   xmlns:svg="http://www.w3.org/2000/svg">
  <defs
     id="defs9" />
  <sodipodi:namedview
     id="namedview9"
     pagecolor="#ffffff"
     bordercolor="#000000"
     borderopacity="0.25"
     inkscape:showpageshadow="2"
     inkscape:pageopacity="0.0"
     inkscape:pagecheckerboard="0"
     inkscape:deskcolor="#d1d1d1"
     inkscape:zoom="0.52287832"
     inkscape:cx="150.13053"
     inkscape:cy="437.9604"
     inkscape:window-width="1728"
     inkscape:window-height="1055"
     inkscape:window-x="0"
     inkscape:window-y="34"
     inkscape:window-maximized="0"
     inkscape:current-layer="svg9" />
  <mask
     id="path-1-outside-1_1691_6621"
     maskUnits="userSpaceOnUse"
     x="6"
     y="481"
     width="311"
     height="92"
     fill="#000000">
    <rect
       fill="#ffffff"
       x="6"
       y="481"
       width="311"
       height="92"
       id="rect1" />
    <path
       d="M 7.87351,570 V 482.727 H 42.3053 c 6.5909,0 12.2159,1.179 16.875,3.537 4.6875,2.33 8.2529,5.639 10.6961,9.929 2.4715,4.262 3.7073,9.276 3.7073,15.043 0,5.795 -1.25,10.781 -3.75,14.957 -2.5,4.148 -6.1221,7.33 -10.8664,9.546 -4.7159,2.216 -10.4262,3.323 -17.1307,3.323 h -23.054 v -14.829 h 20.071 c 3.5228,0 6.4489,-0.483 8.7784,-1.449 2.3296,-0.966 4.0625,-2.415 5.1989,-4.346 1.1648,-1.932 1.7472,-4.333 1.7472,-7.202 0,-2.898 -0.5824,-5.341 -1.7472,-7.33 -1.1364,-1.988 -2.8835,-3.494 -5.2415,-4.517 -2.3295,-1.051 -5.2699,-1.577 -8.821,-1.577 H 26.3252 V 570 Z M 55.0042,530.284 76.6945,570 H 56.3252 L 35.1036,530.284 Z m 58.8528,40.994 c -6.732,0 -12.528,-1.363 -17.3859,-4.09 -4.8295,-2.756 -8.5511,-6.648 -11.1648,-11.677 -2.6136,-5.056 -3.9204,-11.037 -3.9204,-17.94 0,-6.733 1.3068,-12.642 3.9204,-17.727 2.6137,-5.085 6.2926,-9.049 11.037,-11.889 4.7727,-2.841 10.3697,-4.262 16.7897,-4.262 4.318,0 8.338,0.696 12.06,2.088 3.75,1.364 7.017,3.424 9.801,6.179 2.812,2.756 5,6.222 6.562,10.398 1.563,4.148 2.344,9.006 2.344,14.574 v 4.986 H 88.6302 v -11.25 h 38.1818 c 0,-2.614 -0.568,-4.929 -1.705,-6.946 -1.136,-2.017 -2.713,-3.594 -4.73,-4.731 -1.988,-1.164 -4.304,-1.747 -6.946,-1.747 -2.755,0 -5.199,0.64 -7.329,1.918 -2.102,1.25 -3.75,2.94 -4.943,5.071 -1.1936,2.102 -1.8044,4.446 -1.8328,7.031 v 10.696 c 0,3.239 0.5966,6.037 1.7898,8.395 1.222,2.358 2.94,4.176 5.156,5.455 2.216,1.278 4.844,1.917 7.884,1.917 2.017,0 3.863,-0.284 5.54,-0.852 1.676,-0.568 3.11,-1.42 4.304,-2.557 1.193,-1.136 2.102,-2.528 2.727,-4.176 l 16.79,1.108 c -0.853,4.034 -2.6,7.557 -5.242,10.568 -2.614,2.983 -5.994,5.313 -10.142,6.989 -4.119,1.648 -8.878,2.471 -14.276,2.471 z M 185.825,570 h -30.937 v -87.273 h 31.193 c 8.778,0 16.335,1.747 22.67,5.242 6.335,3.466 11.208,8.451 14.617,14.957 3.437,6.506 5.156,14.29 5.156,23.352 0,9.091 -1.719,16.904 -5.156,23.438 -3.409,6.534 -8.31,11.548 -14.702,15.043 -6.364,3.494 -13.977,5.241 -22.841,5.241 z m -12.486,-15.81 h 11.719 c 5.455,0 10.043,-0.966 13.764,-2.897 3.75,-1.961 6.563,-4.986 8.438,-9.077 1.903,-4.119 2.855,-9.432 2.855,-15.938 0,-6.448 -0.952,-11.718 -2.855,-15.809 -1.875,-4.091 -4.674,-7.103 -8.395,-9.034 -3.722,-1.932 -8.31,-2.898 -13.764,-2.898 H 173.339 Z M 271.93,570 h -30.938 v -87.273 h 31.193 c 8.779,0 16.336,1.747 22.671,5.242 6.335,3.466 11.207,8.451 14.616,14.957 3.438,6.506 5.157,14.29 5.157,23.352 0,9.091 -1.719,16.904 -5.157,23.438 -3.409,6.534 -8.309,11.548 -14.701,15.043 -6.364,3.494 -13.978,5.241 -22.841,5.241 z m -12.486,-15.81 h 11.719 c 5.454,0 10.042,-0.966 13.764,-2.897 3.75,-1.961 6.562,-4.986 8.437,-9.077 1.904,-4.119 2.856,-9.432 2.856,-15.938 0,-6.448 -0.952,-11.718 -2.856,-15.809 -1.875,-4.091 -4.673,-7.103 -8.394,-9.034 -3.722,-1.932 -8.31,-2.898 -13.765,-2.898 h -11.761 z"
       id="path1" />
  </mask>
  <path
     d="M 11.87351,626 V 538.727 H 46.3053 c 6.5909,0 12.2159,1.179 16.875,3.537 4.6875,2.33 8.2529,5.639 10.6961,9.929 2.4715,4.262 3.7073,9.276 3.7073,15.043 0,5.795 -1.25,10.781 -3.75,14.957 -2.5,4.148 -6.1221,7.33 -10.8664,9.546 -4.7159,2.216 -10.4262,3.323 -17.1307,3.323 h -23.054 v -14.829 h 20.071 c 3.5228,0 6.4489,-0.483 8.7784,-1.449 2.3296,-0.966 4.0625,-2.415 5.1989,-4.346 1.1648,-1.932 1.7472,-4.333 1.7472,-7.202 0,-2.898 -0.5824,-5.341 -1.7472,-7.33 -1.1364,-1.988 -2.8835,-3.494 -5.2415,-4.517 -2.3295,-1.051 -5.2699,-1.577 -8.821,-1.577 H 30.3252 V 626 Z M 59.0042,586.284 80.6945,626 H 60.3252 L 39.1036,586.284 Z m 58.8528,40.994 c -6.732,0 -12.528,-1.363 -17.3859,-4.09 -4.8295,-2.756 -8.5511,-6.648 -11.1648,-11.677 -2.6136,-5.056 -3.9204,-11.037 -3.9204,-17.94 0,-6.733 1.3068,-12.642 3.9204,-17.727 2.6137,-5.085 6.2926,-9.049 11.037,-11.889 4.7727,-2.841 10.3697,-4.262 16.7897,-4.262 4.318,0 8.338,0.696 12.06,2.088 3.75,1.364 7.017,3.424 9.801,6.179 2.812,2.756 5,6.222 6.562,10.398 1.563,4.148 2.344,9.006 2.344,14.574 v 4.986 H 92.6302 v -11.25 h 38.1818 c 0,-2.614 -0.568,-4.929 -1.705,-6.946 -1.136,-2.017 -2.713,-3.594 -4.73,-4.731 -1.988,-1.164 -4.304,-1.747 -6.946,-1.747 -2.755,0 -5.199,0.64 -7.329,1.918 -2.102,1.25 -3.75,2.94 -4.943,5.071 -1.1936,2.102 -1.8044,4.446 -1.8328,7.031 v 10.696 c 0,3.239 0.5966,6.037 1.7898,8.395 1.222,2.358 2.94,4.176 5.156,5.455 2.216,1.278 4.844,1.917 7.884,1.917 2.017,0 3.863,-0.284 5.54,-0.852 1.676,-0.568 3.11,-1.42 4.304,-2.557 1.193,-1.136 2.102,-2.528 2.727,-4.176 l 16.79,1.108 c -0.853,4.034 -2.6,7.557 -5.242,10.568 -2.614,2.983 -5.994,5.313 -10.142,6.989 -4.119,1.648 -8.878,2.471 -14.276,2.471 z M 189.825,626 h -30.937 v -87.273 h 31.193 c 8.778,0 16.335,1.747 22.67,5.242 6.335,3.466 11.208,8.451 14.617,14.957 3.437,6.506 5.156,14.29 5.156,23.352 0,9.091 -1.719,16.904 -5.156,23.438 -3.409,6.534 -8.31,11.548 -14.702,15.043 -6.364,3.494 -13.977,5.241 -22.841,5.241 z m -12.486,-15.81 h 11.719 c 5.455,0 10.043,-0.966 13.764,-2.897 3.75,-1.961 6.563,-4.986 8.438,-9.077 1.903,-4.119 2.855,-9.432 2.855,-15.938 0,-6.448 -0.952,-11.718 -2.855,-15.809 -1.875,-4.091 -4.674,-7.103 -8.395,-9.034 -3.722,-1.932 -8.31,-2.898 -13.764,-2.898 H 177.339 Z M 275.93,626 h -30.938 v -87.273 h 31.193 c 8.779,0 16.336,1.747 22.671,5.242 6.335,3.466 11.207,8.451 14.616,14.957 3.438,6.506 5.157,14.29 5.157,23.352 0,9.091 -1.719,16.904 -5.157,23.438 -3.409,6.534 -8.309,11.548 -14.701,15.043 -6.364,3.494 -13.978,5.241 -22.841,5.241 z m -12.486,-15.81 h 11.719 c 5.454,0 10.042,-0.966 13.764,-2.897 3.75,-1.961 6.562,-4.986 8.437,-9.077 1.904,-4.119 2.856,-9.432 2.856,-15.938 0,-6.448 -0.952,-11.718 -2.856,-15.809 -1.875,-4.091 -4.673,-7.103 -8.394,-9.034 -3.722,-1.932 -8.31,-2.898 -13.765,-2.898 h -11.761 z"
     fill="#97302b"
     id="path2" />
  <path
     d="m 7.87351,570 h -1.5 v 1.5 h 1.5 z m 0,-87.273 v -1.5 h -1.5 v 1.5 z m 51.30679,3.537 -0.6773,1.339 0.0098,0.004 z m 10.6961,9.929 -1.3035,0.743 0.0059,0.01 z m -0.0427,30 1.2847,0.775 0.0024,-0.004 z m -10.8664,9.546 -0.6348,-1.359 -0.0031,10e-4 z m -40.1847,3.323 h -1.5 v 1.5 h 1.5 z m 0,-14.829 v -1.5 h -1.5 v 1.5 z m 28.8494,-1.449 0.5746,1.386 v 0 z m 5.1989,-4.346 -1.2846,-0.775 -0.0042,0.007 -0.0041,0.007 z m 0,-14.532 -1.3024,0.744 0.004,0.007 0.0041,0.007 z m -5.2415,-4.517 -0.6169,1.367 0.01,0.005 0.01,0.004 z m -21.2642,-1.577 v -1.5 h -1.5 v 1.5 z m 0,72.188 v 1.5 h 1.5 V 570 Z m 28.679,-39.716 1.3165,-0.719 -0.4266,-0.781 H 55.0042 Z M 76.6945,570 v 1.5 h 2.5284 l -1.2119,-2.219 z m -20.3693,0 -1.323,0.707 0.4238,0.793 h 0.8992 z M 35.1036,530.284 v -1.5 h -2.5022 l 1.1792,2.207 z M 7.87351,570 h 1.5 v -87.273 h -1.5 -1.5 V 570 Z m 0,-87.273 v 1.5 H 42.3053 v -1.5 -1.5 H 7.87351 Z m 34.43179,0 v 1.5 c 6.4158,0 11.7964,1.148 16.1977,3.376 l 0.6773,-1.339 0.6774,-1.338 c -4.9169,-2.489 -10.7863,-3.699 -17.5524,-3.699 z m 16.875,3.537 -0.6675,1.343 c 4.4375,2.206 7.7736,5.314 10.0601,9.329 l 1.3035,-0.743 1.3034,-0.742 c -2.5998,-4.565 -6.3944,-8.076 -11.3319,-10.53 z m 10.6961,9.929 -1.2976,0.753 c 2.3179,3.996 3.5049,8.742 3.5049,14.29 h 1.5 1.5 c 0,-5.986 -1.2845,-11.269 -3.9098,-15.795 z m 3.7073,15.043 h -1.5 c 0,5.576 -1.2009,10.284 -3.537,14.187 l 1.287,0.77 1.2871,0.771 c 2.6639,-4.45 3.9629,-9.713 3.9629,-15.728 z m -3.75,14.957 -1.2846,-0.774 c -2.3337,3.872 -5.7192,6.86 -10.2166,8.961 l 0.6348,1.359 0.6347,1.359 c 4.9913,-2.332 8.8501,-5.707 11.5164,-10.13 z m -10.8664,9.546 -0.6379,-1.358 c -4.4677,2.099 -9.9479,3.181 -16.4928,3.181 v 1.5 1.5 c 6.8641,0 12.8044,-1.133 17.7686,-3.466 z m -17.1307,3.323 v -1.5 h -23.054 v 1.5 1.5 h 23.054 z m -23.054,0 h 1.5 v -14.829 h -1.5 -1.5 v 14.829 z m 0,-14.829 v 1.5 h 20.071 v -1.5 -1.5 h -20.071 z m 20.071,0 v 1.5 c 3.6472,0 6.7844,-0.498 9.353,-1.563 l -0.5746,-1.386 -0.5745,-1.386 c -2.0905,0.867 -4.8056,1.335 -8.2039,1.335 z m 8.7784,-1.449 0.5746,1.386 c 2.591,-1.075 4.5952,-2.725 5.9172,-4.972 l -1.2929,-0.76 -1.2929,-0.761 c -0.9507,1.616 -2.4124,2.864 -4.4805,3.721 z m 5.1989,-4.346 1.2846,0.774 c 1.3392,-2.221 1.9626,-4.907 1.9626,-7.976 h -1.5 -1.5 c 0,2.669 -0.5415,4.785 -1.5318,6.427 z m 1.7472,-7.202 h 1.5 c 0,-3.097 -0.6229,-5.817 -1.9529,-8.088 l -1.2943,0.758 -1.2943,0.758 c 0.9995,1.707 1.5415,3.873 1.5415,6.572 z m -1.7472,-7.33 1.3024,-0.744 c -1.3166,-2.304 -3.3299,-4.014 -5.947,-5.149 l -0.5969,1.376 -0.5969,1.376 c 2.0989,0.911 3.5799,2.212 4.536,3.885 z m -5.2415,-4.517 0.617,-1.367 c -2.5835,-1.166 -5.7517,-1.71 -9.438,-1.71 v 1.5 1.5 c 3.416,0 6.1285,0.508 8.2041,1.444 z m -8.821,-1.577 v -1.5 H 26.3252 v 1.5 1.5 h 12.4432 z m -12.4432,0 h -1.5 V 570 h 1.5 1.5 v -72.188 z m 0,72.188 v -1.5 H 7.87351 v 1.5 1.5 H 26.3252 Z m 28.679,-39.716 -1.3165,0.719 21.6904,39.716 L 76.6945,570 78.011,569.281 56.3207,529.565 Z M 76.6945,570 v -1.5 H 56.3252 v 1.5 1.5 h 20.3693 z m -20.3693,0 1.323,-0.707 -21.2216,-39.716 -1.323,0.707 -1.323,0.707 21.2216,39.716 z M 35.1036,530.284 v 1.5 h 19.9006 v -1.5 -1.5 H 35.1036 Z m 61.3675,36.904 -0.7434,1.302 0.0091,0.005 z m -11.1648,-11.677 -1.3325,0.689 0.0016,0.003 z m 0,-35.667 -1.3341,-0.686 v 0 z m 11.037,-11.889 -0.7673,-1.289 -0.0034,0.002 z m 28.8497,-2.174 -0.526,1.405 0.013,0.005 z m 9.801,6.179 -1.055,1.066 0.005,0.006 z m 6.562,10.398 -1.405,0.526 0.002,0.003 z m 2.344,19.56 v 1.5 h 1.5 v -1.5 z m -55.2698,0 h -1.5 v 1.5 h 1.5 z m 0,-11.25 v -1.5 h -1.5 v 1.5 z m 38.1818,0 v 1.5 h 1.5 v -1.5 z m -1.705,-6.946 -1.306,0.736 v 0 z m -4.73,-4.731 -0.758,1.295 0.011,0.006 0.011,0.006 z m -14.275,0.171 0.766,1.289 0.006,-0.003 z m -4.943,5.071 1.304,0.74 0.004,-0.007 z m -1.8328,7.031 -1.4999,-0.016 -1e-4,0.008 v 0.008 z m 1.7898,19.091 -1.3384,0.677 0.0032,0.007 0.0033,0.006 z m 18.58,6.52 -0.482,-1.421 v 0 z m 4.304,-2.557 -1.035,-1.086 v 0 z m 2.727,-4.176 0.099,-1.497 -1.108,-0.073 -0.394,1.038 z m 16.79,1.108 1.467,0.31 0.358,-1.693 -1.727,-0.114 z m -5.242,10.568 -1.127,-0.989 -0.001,0.001 z m -10.142,6.989 0.557,1.393 0.005,-0.002 z m -14.276,2.471 v -1.5 c -6.529,0 -12.06,-1.321 -16.6516,-3.898 l -0.7343,1.308 -0.7343,1.307 c 5.1242,2.877 11.1842,4.283 18.1202,4.283 z m -17.3859,-4.09 0.7434,-1.303 c -4.574,-2.61 -8.0939,-6.288 -10.5772,-11.065 l -1.331,0.691 -1.3309,0.692 c 2.7439,5.279 6.6672,9.386 11.7523,12.287 z m -11.1648,-11.677 1.3326,-0.688 c -2.4826,-4.804 -3.753,-10.538 -3.753,-17.252 h -1.5 -1.5 c 0,7.093 1.3432,13.319 4.0879,18.629 z m -3.9204,-17.94 h 1.5 c 0,-6.537 1.2677,-12.203 3.7545,-17.042 l -1.3341,-0.685 -1.3341,-0.686 c -2.7404,5.332 -4.0863,11.484 -4.0863,18.413 z m 3.9204,-17.727 1.3341,0.685 c 2.4902,-4.845 5.9779,-8.596 10.4735,-11.288 l -0.7706,-1.286 -0.7707,-1.287 c -4.993,2.989 -8.8633,7.165 -11.6004,12.49 z m 11.037,-11.889 0.7672,1.288 c 4.5065,-2.682 9.8295,-4.05 16.0225,-4.05 v -1.5 -1.5 c -6.648,0 -12.518,1.473 -17.557,4.473 z m 16.7897,-4.262 v 1.5 c 4.154,0 7.995,0.669 11.534,1.993 l 0.526,-1.405 0.525,-1.405 c -3.903,-1.46 -8.103,-2.183 -12.585,-2.183 z m 12.06,2.088 -0.513,1.41 c 3.55,1.291 6.631,3.235 9.259,5.835 l 1.055,-1.066 1.055,-1.066 c -2.941,-2.911 -6.394,-5.086 -10.344,-6.522 z m 9.801,6.179 -1.05,1.072 c 2.636,2.582 4.712,5.854 6.207,9.852 l 1.405,-0.526 1.405,-0.526 c -1.629,-4.354 -3.928,-8.015 -6.917,-10.943 z m 6.562,10.398 -1.403,0.529 c 1.484,3.941 2.247,8.613 2.247,14.045 h 1.5 1.5 c 0,-5.705 -0.8,-10.749 -2.44,-15.103 z m 2.344,14.574 h -1.5 v 4.986 h 1.5 1.5 v -4.986 z m 0,4.986 v -1.5 H 88.6302 v 1.5 1.5 H 143.9 Z m -55.2698,0 h 1.5 v -11.25 h -1.5 -1.5 v 11.25 z m 0,-11.25 v 1.5 h 38.1818 v -1.5 -1.5 H 88.6302 Z m 38.1818,0 h 1.5 c 0,-2.838 -0.619,-5.413 -1.898,-7.683 l -1.307,0.737 -1.306,0.736 c 0.994,1.764 1.511,3.82 1.511,6.21 z m -1.705,-6.946 1.307,-0.737 c -1.271,-2.255 -3.045,-4.03 -5.3,-5.3 l -0.737,1.306 -0.736,1.307 c 1.778,1.002 3.158,2.382 4.16,4.16 z m -4.73,-4.731 0.758,-1.294 c -2.25,-1.318 -4.835,-1.953 -7.704,-1.953 v 1.5 1.5 c 2.416,0 4.462,0.53 6.188,1.542 z m -6.946,-1.747 v -1.5 c -2.997,0 -5.712,0.699 -8.101,2.132 l 0.772,1.286 0.772,1.286 c 1.872,-1.123 4.043,-1.704 6.557,-1.704 z m -7.329,1.918 -0.767,-1.289 c -2.328,1.384 -4.163,3.266 -5.4852,5.627 l 1.3092,0.733 1.308,0.733 c 1.065,-1.901 2.525,-3.399 4.401,-4.515 z m -4.943,5.071 -1.3049,-0.74 c -1.3273,2.338 -1.9968,4.934 -2.0278,7.755 l 1.4999,0.016 1.4998,0.017 c 0.026,-2.35 0.578,-4.442 1.637,-6.308 z m -1.8328,7.031 h -1.5 v 10.696 h 1.5 1.4998 v -10.696 z m 0,10.696 h -1.5 c 0,3.422 0.6307,6.462 1.9514,9.072 l 1.3384,-0.677 1.338,-0.677 c -1.065,-2.106 -1.628,-4.662 -1.628,-7.718 z m 1.7898,8.395 -1.3319,0.69 c 1.3479,2.602 3.2649,4.637 5.7389,6.064 l 0.749,-1.299 0.75,-1.3 c -1.958,-1.129 -3.479,-2.731 -4.574,-4.845 z m 5.156,5.455 -0.749,1.299 c 2.483,1.433 5.38,2.118 8.633,2.118 v -1.5 -1.5 c -2.827,0 -5.186,-0.593 -7.134,-1.717 z m 7.884,1.917 v 1.5 c 2.158,0 4.17,-0.304 6.021,-0.931 l -0.481,-1.421 -0.482,-1.421 c -1.501,0.509 -3.182,0.773 -5.058,0.773 z m 5.54,-0.852 0.481,1.421 c 1.867,-0.633 3.495,-1.594 4.857,-2.892 l -1.034,-1.086 -1.035,-1.086 c -1.024,0.975 -2.266,1.719 -3.751,2.222 z m 4.304,-2.557 1.034,1.086 c 1.367,-1.301 2.396,-2.887 3.095,-4.73 l -1.402,-0.532 -1.403,-0.532 c -0.551,1.453 -1.34,2.651 -2.359,3.622 z m 2.727,-4.176 -0.099,1.497 16.79,1.108 0.099,-1.497 0.098,-1.497 -16.789,-1.108 z m 16.79,1.108 -1.468,-0.31 c -0.801,3.79 -2.434,7.077 -4.901,9.889 l 1.127,0.989 1.128,0.989 c 2.817,-3.21 4.677,-6.969 5.581,-11.247 z m -5.242,10.568 -1.128,-0.988 c -2.44,2.785 -5.618,4.987 -9.576,6.586 l 0.562,1.391 0.562,1.391 c 4.337,-1.753 7.921,-4.21 10.708,-7.391 z m -10.142,6.989 -0.557,-1.393 c -3.908,1.563 -8.471,2.364 -13.719,2.364 v 1.5 1.5 c 5.549,0 10.503,-0.846 14.833,-2.578 z M 154.888,570 h -1.5 v 1.5 h 1.5 z m 0,-87.273 v -1.5 h -1.5 v 1.5 z m 53.863,5.242 -0.724,1.313 0.004,0.003 z m 14.617,14.957 -1.329,0.696 0.002,0.005 z m 0,46.79 -1.328,-0.698 -0.002,0.004 z m -14.702,15.043 -0.72,-1.317 -0.002,0.002 z M 173.339,554.19 h -1.5 v 1.5 h 1.5 z m 25.483,-2.897 0.691,1.331 0.004,-0.002 z m 8.438,-9.077 -1.362,-0.629 -0.002,0.004 z m 0,-31.747 -1.364,0.625 0.004,0.008 z m -8.395,-9.034 0.691,-1.332 v 0 z m -25.526,-2.898 v -1.5 h -1.5 v 1.5 z M 185.825,570 v -1.5 h -30.937 v 1.5 1.5 h 30.937 z m -30.937,0 h 1.5 v -87.273 h -1.5 -1.5 V 570 Z m 0,-87.273 v 1.5 h 31.193 v -1.5 -1.5 h -31.193 z m 31.193,0 v 1.5 c 8.579,0 15.875,1.707 21.946,5.055 l 0.724,-1.313 0.725,-1.314 c -6.6,-3.64 -14.417,-5.428 -23.395,-5.428 z m 22.67,5.242 -0.72,1.316 c 6.071,3.321 10.734,8.089 14.008,14.337 l 1.329,-0.696 1.328,-0.696 c -3.544,-6.763 -8.625,-11.967 -15.225,-15.577 z m 14.617,14.957 -1.327,0.701 c 3.3,6.245 4.983,13.777 4.983,22.651 h 1.5 1.5 c 0,-9.251 -1.755,-17.287 -5.33,-24.053 z m 5.156,23.352 h -1.5 c 0,8.903 -1.683,16.465 -4.984,22.74 l 1.328,0.698 1.327,0.698 c 3.574,-6.793 5.329,-14.857 5.329,-24.136 z m -5.156,23.438 -1.33,-0.694 c -3.274,6.274 -7.963,11.07 -14.092,14.42 l 0.72,1.317 0.719,1.316 c 6.656,-3.639 11.768,-8.871 15.313,-15.665 z m -14.702,15.043 -0.722,-1.315 c -6.099,3.348 -13.452,5.056 -22.119,5.056 v 1.5 1.5 c 9.061,0 16.934,-1.787 23.563,-5.427 z M 173.339,554.19 v 1.5 h 11.719 v -1.5 -1.5 h -11.719 z m 11.719,0 v 1.5 c 5.625,0 10.466,-0.995 14.455,-3.066 l -0.691,-1.331 -0.691,-1.332 c -3.453,1.793 -7.789,2.729 -13.073,2.729 z m 13.764,-2.897 0.695,1.329 c 4.064,-2.125 7.102,-5.408 9.106,-9.781 l -1.363,-0.625 -1.364,-0.625 c -1.746,3.809 -4.333,6.576 -7.769,8.372 z m 8.438,-9.077 1.361,0.629 c 2.026,-4.383 2.994,-9.931 2.994,-16.567 h -1.5 -1.5 c 0,6.376 -0.935,11.453 -2.717,15.309 z m 2.855,-15.938 h 1.5 c 0,-6.58 -0.969,-12.087 -2.995,-16.442 l -1.36,0.633 -1.36,0.633 c 1.78,3.826 2.715,8.859 2.715,15.176 z m -2.855,-15.809 1.363,-0.625 c -2.003,-4.371 -5.027,-7.643 -9.067,-9.741 l -0.691,1.332 -0.691,1.331 c 3.402,1.766 5.975,4.517 7.722,8.328 z m -8.395,-9.034 0.691,-1.332 c -3.99,-2.071 -8.83,-3.066 -14.455,-3.066 v 1.5 1.5 c 5.284,0 9.619,0.936 13.073,2.729 z m -13.764,-2.898 v -1.5 h -11.762 v 1.5 1.5 h 11.762 z m -11.762,0 h -1.5 v 55.653 h 1.5 1.5 V 498.537 Z M 240.992,570 h -1.5 v 1.5 h 1.5 z m 0,-87.273 v -1.5 h -1.5 v 1.5 z m 53.864,5.242 -0.725,1.313 0.005,0.003 z m 14.616,14.957 -1.328,0.696 0.002,0.005 z m 0,46.79 -1.327,-0.698 -0.003,0.004 z m -14.701,15.043 -0.72,-1.317 -0.002,0.002 z M 259.444,554.19 h -1.5 v 1.5 h 1.5 z m 25.483,-2.897 0.691,1.331 0.004,-0.002 z m 8.437,-9.077 -1.361,-0.629 -0.002,0.004 z m 0,-31.747 -1.363,0.625 0.003,0.008 z m -8.394,-9.034 0.691,-1.332 v 0 z m -25.526,-2.898 v -1.5 h -1.5 v 1.5 z M 271.93,570 v -1.5 h -30.938 v 1.5 1.5 h 30.938 z m -30.938,0 h 1.5 v -87.273 h -1.5 -1.5 V 570 Z m 0,-87.273 v 1.5 h 31.193 v -1.5 -1.5 h -31.193 z m 31.193,0 v 1.5 c 8.579,0 15.876,1.707 21.946,5.055 l 0.725,-1.313 0.724,-1.314 c -6.599,-3.64 -14.416,-5.428 -23.395,-5.428 z m 22.671,5.242 -0.72,1.316 c 6.071,3.321 10.733,8.089 14.008,14.337 l 1.328,-0.696 1.329,-0.696 c -3.544,-6.763 -8.626,-11.967 -15.225,-15.577 z m 14.616,14.957 -1.326,0.701 c 3.3,6.245 4.983,13.777 4.983,22.651 h 1.5 1.5 c 0,-9.251 -1.755,-17.287 -5.33,-24.053 z m 5.157,23.352 h -1.5 c 0,8.903 -1.683,16.465 -4.984,22.74 l 1.327,0.698 1.328,0.698 c 3.574,-6.793 5.329,-14.857 5.329,-24.136 z m -5.157,23.438 -1.33,-0.694 c -3.273,6.274 -7.963,11.07 -14.091,14.42 l 0.72,1.317 0.719,1.316 c 6.656,-3.639 11.768,-8.871 15.312,-15.665 z m -14.701,15.043 -0.722,-1.315 c -6.099,3.348 -13.453,5.056 -22.119,5.056 v 1.5 1.5 c 9.061,0 16.934,-1.787 23.563,-5.427 z M 259.444,554.19 v 1.5 h 11.719 v -1.5 -1.5 h -11.719 z m 11.719,0 v 1.5 c 5.625,0 10.465,-0.995 14.455,-3.066 l -0.691,-1.331 -0.691,-1.332 c -3.454,1.793 -7.789,2.729 -13.073,2.729 z m 13.764,-2.897 0.695,1.329 c 4.064,-2.125 7.102,-5.408 9.106,-9.781 l -1.364,-0.625 -1.363,-0.625 c -1.746,3.809 -4.333,6.576 -7.769,8.372 z m 8.437,-9.077 1.362,0.629 c 2.025,-4.383 2.994,-9.931 2.994,-16.567 h -1.5 -1.5 c 0,6.376 -0.936,11.453 -2.717,15.309 z m 2.856,-15.938 h 1.5 c 0,-6.58 -0.969,-12.087 -2.996,-16.442 l -1.36,0.633 -1.36,0.633 c 1.781,3.826 2.716,8.859 2.716,15.176 z m -2.856,-15.809 1.364,-0.625 c -2.003,-4.371 -5.027,-7.643 -9.067,-9.741 l -0.691,1.332 -0.692,1.331 c 3.403,1.766 5.976,4.517 7.723,8.328 z m -8.394,-9.034 0.691,-1.332 c -3.99,-2.071 -8.831,-3.066 -14.456,-3.066 v 1.5 1.5 c 5.284,0 9.62,0.936 13.073,2.729 z m -13.765,-2.898 v -1.5 h -11.761 v 1.5 1.5 h 11.761 z m -11.761,0 h -1.5 v 55.653 h 1.5 1.5 v -55.653 z"
     fill="#82121c"
     mask="url(#path-1-outside-1_1691_6621)"
     id="path3"
     transform="translate(4,56)" />
  <mask
     id="path-3-outside-2_1691_6621"
     maskUnits="userSpaceOnUse"
     x="352"
     y="481"
     width="339"
     height="92"
     fill="#000000">
    <rect
       fill="#ffffff"
       x="352"
       y="481"
       width="339"
       height="92"
       id="rect3" />
    <path
       d="m 353.763,570 v -87.273 h 57.784 v 15.213 h -39.333 v 20.796 h 35.497 v 15.213 H 372.214 V 570 Z m 93.423,1.278 c -6.619,0 -12.344,-1.406 -17.173,-4.218 -4.801,-2.841 -8.509,-6.79 -11.122,-11.847 -2.614,-5.085 -3.921,-10.98 -3.921,-17.685 0,-6.761 1.307,-12.67 3.921,-17.727 2.613,-5.085 6.321,-9.034 11.122,-11.846 4.829,-2.841 10.554,-4.262 17.173,-4.262 6.619,0 12.33,1.421 17.131,4.262 4.829,2.812 8.551,6.761 11.165,11.846 2.613,5.057 3.92,10.966 3.92,17.727 0,6.705 -1.307,12.6 -3.92,17.685 -2.614,5.057 -6.336,9.006 -11.165,11.847 -4.801,2.812 -10.512,4.218 -17.131,4.218 z m 0.085,-14.062 c 3.012,0 5.526,-0.852 7.543,-2.557 2.017,-1.733 3.537,-4.091 4.56,-7.074 1.051,-2.983 1.576,-6.378 1.576,-10.184 0,-3.807 -0.525,-7.202 -1.576,-10.185 -1.023,-2.983 -2.543,-5.341 -4.56,-7.074 -2.017,-1.733 -4.531,-2.599 -7.543,-2.599 -3.039,0 -5.596,0.866 -7.67,2.599 -2.046,1.733 -3.594,4.091 -4.645,7.074 -1.023,2.983 -1.534,6.378 -1.534,10.185 0,3.806 0.511,7.201 1.534,10.184 1.051,2.983 2.599,5.341 4.645,7.074 2.074,1.705 4.631,2.557 7.67,2.557 z m 72.309,14.062 c -6.705,0 -12.472,-1.42 -17.301,-4.261 -4.801,-2.869 -8.495,-6.847 -11.08,-11.932 -2.557,-5.085 -3.835,-10.937 -3.835,-17.557 0,-6.704 1.293,-12.585 3.878,-17.642 2.613,-5.085 6.321,-9.048 11.122,-11.889 4.801,-2.869 10.511,-4.304 17.131,-4.304 5.71,0 10.71,1.037 15,3.111 4.289,2.074 7.684,4.986 10.184,8.736 2.5,3.75 3.878,8.153 4.134,13.21 h -17.131 c -0.483,-3.267 -1.761,-5.895 -3.835,-7.884 -2.046,-2.017 -4.73,-3.025 -8.054,-3.025 -2.813,0 -5.27,0.767 -7.372,2.301 -2.074,1.506 -3.693,3.707 -4.858,6.605 -1.165,2.898 -1.747,6.406 -1.747,10.526 0,4.176 0.568,7.727 1.704,10.653 1.165,2.926 2.799,5.156 4.901,6.69 2.102,1.535 4.559,2.302 7.372,2.302 2.074,0 3.935,-0.427 5.582,-1.279 1.676,-0.852 3.054,-2.088 4.134,-3.707 1.108,-1.648 1.832,-3.622 2.173,-5.923 h 17.131 c -0.284,5 -1.648,9.403 -4.091,13.21 -2.415,3.778 -5.753,6.733 -10.014,8.863 -4.262,2.131 -9.304,3.196 -15.128,3.196 z m 81.63,-29.147 v -37.586 h 18.154 V 570 h -17.429 v -11.889 h -0.682 c -1.478,3.835 -3.935,6.917 -7.372,9.247 -3.409,2.329 -7.571,3.494 -12.486,3.494 -4.375,0 -8.225,-0.994 -11.548,-2.983 -3.324,-1.988 -5.924,-4.815 -7.799,-8.48 -1.846,-3.665 -2.784,-8.054 -2.812,-13.167 v -41.677 h 18.153 v 38.438 c 0.029,3.864 1.065,6.918 3.111,9.162 2.045,2.244 4.787,3.366 8.224,3.366 2.188,0 4.233,-0.497 6.137,-1.491 1.903,-1.023 3.437,-2.529 4.602,-4.517 1.193,-1.989 1.776,-4.446 1.747,-7.372 z m 85.934,-18.921 -16.619,1.023 c -0.284,-1.421 -0.895,-2.699 -1.832,-3.835 -0.938,-1.165 -2.174,-2.088 -3.708,-2.77 -1.505,-0.71 -3.309,-1.066 -5.412,-1.066 -2.812,0 -5.184,0.597 -7.116,1.79 -1.932,1.165 -2.898,2.728 -2.898,4.688 0,1.562 0.625,2.883 1.875,3.963 1.25,1.079 3.395,1.946 6.435,2.599 l 11.846,2.387 c 6.364,1.306 11.108,3.409 14.233,6.306 3.125,2.898 4.688,6.705 4.688,11.421 0,4.29 -1.264,8.054 -3.793,11.293 -2.5,3.238 -5.937,5.767 -10.312,7.585 -4.347,1.79 -9.361,2.684 -15.043,2.684 -8.665,0 -15.568,-1.804 -20.71,-5.412 -5.114,-3.636 -8.111,-8.579 -8.992,-14.829 l 17.856,-0.938 c 0.539,2.642 1.846,4.66 3.92,6.052 2.074,1.363 4.73,2.045 7.969,2.045 3.182,0 5.738,-0.611 7.67,-1.832 1.96,-1.25 2.955,-2.855 2.983,-4.816 -0.028,-1.647 -0.724,-2.997 -2.088,-4.048 -1.364,-1.08 -3.466,-1.903 -6.307,-2.472 l -11.335,-2.258 c -6.392,-1.279 -11.151,-3.494 -14.276,-6.648 -3.096,-3.153 -4.644,-7.173 -4.644,-12.06 0,-4.204 1.136,-7.826 3.409,-10.866 2.301,-3.04 5.525,-5.384 9.673,-7.031 4.176,-1.648 9.062,-2.472 14.659,-2.472 8.267,0 14.773,1.747 19.517,5.242 4.773,3.494 7.557,8.252 8.352,14.275 z"
       id="path4" />
  </mask>
  <path
     d="m 357.763,626 v -87.273 h 57.784 v 15.213 h -39.333 v 20.796 h 35.497 v 15.213 H 376.214 V 626 Z m 93.423,1.278 c -6.619,0 -12.344,-1.406 -17.173,-4.218 -4.801,-2.841 -8.509,-6.79 -11.122,-11.847 -2.614,-5.085 -3.921,-10.98 -3.921,-17.685 0,-6.761 1.307,-12.67 3.921,-17.727 2.613,-5.085 6.321,-9.034 11.122,-11.846 4.829,-2.841 10.554,-4.262 17.173,-4.262 6.619,0 12.33,1.421 17.131,4.262 4.829,2.812 8.551,6.761 11.165,11.846 2.613,5.057 3.92,10.966 3.92,17.727 0,6.705 -1.307,12.6 -3.92,17.685 -2.614,5.057 -6.336,9.006 -11.165,11.847 -4.801,2.812 -10.512,4.218 -17.131,4.218 z m 0.085,-14.062 c 3.012,0 5.526,-0.852 7.543,-2.557 2.017,-1.733 3.537,-4.091 4.56,-7.074 1.051,-2.983 1.576,-6.378 1.576,-10.184 0,-3.807 -0.525,-7.202 -1.576,-10.185 -1.023,-2.983 -2.543,-5.341 -4.56,-7.074 -2.017,-1.733 -4.531,-2.599 -7.543,-2.599 -3.039,0 -5.596,0.866 -7.67,2.599 -2.046,1.733 -3.594,4.091 -4.645,7.074 -1.023,2.983 -1.534,6.378 -1.534,10.185 0,3.806 0.511,7.201 1.534,10.184 1.051,2.983 2.599,5.341 4.645,7.074 2.074,1.705 4.631,2.557 7.67,2.557 z m 72.309,14.062 c -6.705,0 -12.472,-1.42 -17.301,-4.261 -4.801,-2.869 -8.495,-6.847 -11.08,-11.932 -2.557,-5.085 -3.835,-10.937 -3.835,-17.557 0,-6.704 1.293,-12.585 3.878,-17.642 2.613,-5.085 6.321,-9.048 11.122,-11.889 4.801,-2.869 10.511,-4.304 17.131,-4.304 5.71,0 10.71,1.037 15,3.111 4.289,2.074 7.684,4.986 10.184,8.736 2.5,3.75 3.878,8.153 4.134,13.21 h -17.131 c -0.483,-3.267 -1.761,-5.895 -3.835,-7.884 -2.046,-2.017 -4.73,-3.025 -8.054,-3.025 -2.813,0 -5.27,0.767 -7.372,2.301 -2.074,1.506 -3.693,3.707 -4.858,6.605 -1.165,2.898 -1.747,6.406 -1.747,10.526 0,4.176 0.568,7.727 1.704,10.653 1.165,2.926 2.799,5.156 4.901,6.69 2.102,1.535 4.559,2.302 7.372,2.302 2.074,0 3.935,-0.427 5.582,-1.279 1.676,-0.852 3.054,-2.088 4.134,-3.707 1.108,-1.648 1.832,-3.622 2.173,-5.923 h 17.131 c -0.284,5 -1.648,9.403 -4.091,13.21 -2.415,3.778 -5.753,6.733 -10.014,8.863 -4.262,2.131 -9.304,3.196 -15.128,3.196 z m 81.63,-29.147 v -37.586 h 18.154 V 626 h -17.429 v -11.889 h -0.682 c -1.478,3.835 -3.935,6.917 -7.372,9.247 -3.409,2.329 -7.571,3.494 -12.486,3.494 -4.375,0 -8.225,-0.994 -11.548,-2.983 -3.324,-1.988 -5.924,-4.815 -7.799,-8.48 -1.846,-3.665 -2.784,-8.054 -2.812,-13.167 v -41.677 h 18.153 v 38.438 c 0.029,3.864 1.065,6.918 3.111,9.162 2.045,2.244 4.787,3.366 8.224,3.366 2.188,0 4.233,-0.497 6.137,-1.491 1.903,-1.023 3.437,-2.529 4.602,-4.517 1.193,-1.989 1.776,-4.446 1.747,-7.372 z m 85.934,-18.921 -16.619,1.023 c -0.284,-1.421 -0.895,-2.699 -1.832,-3.835 -0.938,-1.165 -2.174,-2.088 -3.708,-2.77 -1.505,-0.71 -3.309,-1.066 -5.412,-1.066 -2.812,0 -5.184,0.597 -7.116,1.79 -1.932,1.165 -2.898,2.728 -2.898,4.688 0,1.562 0.625,2.883 1.875,3.963 1.25,1.079 3.395,1.946 6.435,2.599 l 11.846,2.387 c 6.364,1.306 11.108,3.409 14.233,6.306 3.125,2.898 4.688,6.705 4.688,11.421 0,4.29 -1.264,8.054 -3.793,11.293 -2.5,3.238 -5.937,5.767 -10.312,7.585 -4.347,1.79 -9.361,2.684 -15.043,2.684 -8.665,0 -15.568,-1.804 -20.71,-5.412 -5.114,-3.636 -8.111,-8.579 -8.992,-14.829 l 17.856,-0.938 c 0.539,2.642 1.846,4.66 3.92,6.052 2.074,1.363 4.73,2.045 7.969,2.045 3.182,0 5.738,-0.611 7.67,-1.832 1.96,-1.25 2.955,-2.855 2.983,-4.816 -0.028,-1.647 -0.724,-2.997 -2.088,-4.048 -1.364,-1.08 -3.466,-1.903 -6.307,-2.472 l -11.335,-2.258 c -6.392,-1.279 -11.151,-3.494 -14.276,-6.648 -3.096,-3.153 -4.644,-7.173 -4.644,-12.06 0,-4.204 1.136,-7.826 3.409,-10.866 2.301,-3.04 5.525,-5.384 9.673,-7.031 4.176,-1.648 9.062,-2.472 14.659,-2.472 8.267,0 14.773,1.747 19.517,5.242 4.773,3.494 7.557,8.252 8.352,14.275 z"
     fill="#1f53ba"
     id="path5" />
  <path
     d="m 353.763,570 h -1.5 v 1.5 h 1.5 z m 0,-87.273 v -1.5 h -1.5 v 1.5 z m 57.784,0 h 1.5 v -1.5 h -1.5 z m 0,15.213 v 1.5 h 1.5 v -1.5 z m -39.333,0 v -1.5 h -1.5 v 1.5 z m 0,20.796 h -1.5 v 1.5 h 1.5 z m 35.497,0 h 1.5 v -1.5 h -1.5 z m 0,15.213 v 1.5 h 1.5 v -1.5 z m -35.497,0 v -1.5 h -1.5 v 1.5 z m 0,36.051 v 1.5 h 1.5 V 570 Z m -18.451,0 h 1.5 v -87.273 h -1.5 -1.5 V 570 Z m 0,-87.273 v 1.5 h 57.784 v -1.5 -1.5 h -57.784 z m 57.784,0 h -1.5 v 15.213 h 1.5 1.5 v -15.213 z m 0,15.213 v -1.5 h -39.333 v 1.5 1.5 h 39.333 z m -39.333,0 h -1.5 v 20.796 h 1.5 1.5 V 497.94 Z m 0,20.796 v 1.5 h 35.497 v -1.5 -1.5 h -35.497 z m 35.497,0 h -1.5 v 15.213 h 1.5 1.5 v -15.213 z m 0,15.213 v -1.5 h -35.497 v 1.5 1.5 h 35.497 z m -35.497,0 h -1.5 V 570 h 1.5 1.5 v -36.051 z m 0,36.051 v -1.5 h -18.451 v 1.5 1.5 h 18.451 z m 57.799,-2.94 -0.764,1.291 0.009,0.005 z m -11.122,-11.847 -1.334,0.686 10e-4,0.003 z m 0,-35.412 1.332,0.689 0.002,-0.003 z m 11.122,-11.846 0.758,1.294 0.002,-0.002 z m 34.304,0 -0.764,1.291 0.009,0.005 z m 11.165,11.846 -1.335,0.686 0.002,0.003 z m 0,35.412 1.332,0.689 0.002,-0.003 z m -11.165,11.847 0.758,1.294 0.002,-0.001 z m -9.503,-12.401 0.968,1.146 0.009,-0.008 z m 4.56,-7.074 -1.415,-0.498 -0.004,0.012 z m 0,-20.369 -1.419,0.486 0.004,0.012 z m -19.773,-7.074 -0.962,-1.151 -0.008,0.007 z m -4.645,7.074 -1.415,-0.499 -0.004,0.012 z m 0,20.369 -1.419,0.487 0.004,0.012 z m 4.645,7.074 -0.97,1.145 0.009,0.007 0.008,0.007 z m 7.585,16.619 v -1.5 c -6.403,0 -11.857,-1.358 -16.418,-4.015 l -0.755,1.297 -0.755,1.296 c 5.098,2.969 11.093,4.422 17.928,4.422 z m -17.173,-4.218 0.764,-1.291 c -4.554,-2.695 -8.067,-6.433 -10.554,-11.245 l -1.332,0.689 -1.333,0.689 c 2.74,5.301 6.642,9.461 11.691,12.449 z m -11.122,-11.847 1.334,-0.686 c -2.487,-4.839 -3.755,-10.491 -3.755,-16.999 h -1.5 -1.5 c 0,6.902 1.347,13.04 4.087,18.371 z m -3.921,-17.685 h 1.5 c 0,-6.566 1.269,-12.231 3.753,-17.038 l -1.332,-0.689 -1.333,-0.689 c -2.742,5.307 -4.088,11.46 -4.088,18.416 z m 3.921,-17.727 1.334,0.686 c 2.487,-4.839 5.998,-8.574 10.546,-11.238 l -0.758,-1.294 -0.758,-1.295 c -5.054,2.961 -8.958,7.124 -11.698,12.455 z m 11.122,-11.846 0.76,1.292 c 4.561,-2.682 10.012,-4.054 16.413,-4.054 v -1.5 -1.5 c -6.838,0 -12.835,1.469 -17.934,4.469 z m 17.173,-4.262 v 1.5 c 6.401,0 11.837,1.372 16.367,4.052 l 0.764,-1.29 0.764,-1.291 c -5.073,-3.002 -11.057,-4.471 -17.895,-4.471 z m 17.131,4.262 -0.755,1.296 c 4.576,2.665 8.1,6.399 10.585,11.236 l 1.335,-0.686 1.334,-0.686 c -2.742,-5.333 -6.661,-9.497 -11.744,-12.457 z m 11.165,11.846 -1.333,0.689 c 2.485,4.807 3.753,10.472 3.753,17.038 h 1.5 1.5 c 0,-6.956 -1.345,-13.109 -4.088,-18.416 z m 3.92,17.727 h -1.5 c 0,6.508 -1.267,12.16 -3.755,16.999 l 1.335,0.686 1.334,0.686 c 2.74,-5.331 4.086,-11.469 4.086,-18.371 z m -3.92,17.685 -1.333,-0.689 c -2.486,4.81 -6.011,8.548 -10.593,11.243 l 0.761,1.293 0.76,1.293 c 5.078,-2.987 8.996,-7.147 11.737,-12.451 z m -11.165,11.847 -0.758,-1.295 c -4.531,2.655 -9.969,4.013 -16.373,4.013 v 1.5 1.5 c 6.835,0 12.818,-1.453 17.889,-4.424 z m -17.046,-9.844 v 1.5 c 3.313,0 6.186,-0.946 8.511,-2.911 l -0.968,-1.146 -0.968,-1.146 c -1.709,1.444 -3.865,2.203 -6.575,2.203 z m 7.543,-2.557 0.977,1.138 c 2.255,-1.937 3.908,-4.537 5.002,-7.725 l -1.419,-0.487 -1.419,-0.486 c -0.953,2.777 -2.339,4.893 -4.119,6.422 z m 4.56,-7.074 1.414,0.499 c 1.118,-3.172 1.662,-6.74 1.662,-10.683 h -1.5 -1.5 c 0,3.67 -0.507,6.892 -1.491,9.686 z m 1.576,-10.184 h 1.5 c 0,-3.944 -0.544,-7.512 -1.662,-10.684 l -1.414,0.499 -1.415,0.498 c 0.984,2.794 1.491,6.016 1.491,9.687 z m -1.576,-10.185 1.419,-0.487 c -1.094,-3.188 -2.747,-5.788 -5.002,-7.725 l -0.977,1.138 -0.978,1.138 c 1.78,1.529 3.166,3.645 4.119,6.422 z m -4.56,-7.074 0.977,-1.138 c -2.325,-1.997 -5.2,-2.961 -8.52,-2.961 v 1.5 1.5 c 2.704,0 4.857,0.769 6.565,2.237 z m -7.543,-2.599 v -1.5 c -3.344,0 -6.254,0.961 -8.632,2.948 l 0.962,1.151 0.962,1.151 c 1.77,-1.479 3.974,-2.25 6.708,-2.25 z m -7.67,2.599 -0.97,-1.144 c -2.282,1.933 -3.966,4.531 -5.09,7.719 l 1.415,0.499 1.415,0.498 c 0.978,-2.777 2.391,-4.895 4.2,-6.427 z m -4.645,7.074 -1.419,-0.487 c -1.086,3.169 -1.615,6.732 -1.615,10.672 h 1.5 1.5 c 0,-3.675 0.494,-6.901 1.453,-9.699 z m -1.534,10.185 h -1.5 c 0,3.939 0.529,7.503 1.615,10.671 l 1.419,-0.487 1.419,-0.486 c -0.959,-2.798 -1.453,-6.024 -1.453,-9.698 z m 1.534,10.184 -1.415,0.499 c 1.124,3.188 2.808,5.786 5.09,7.72 l 0.97,-1.145 0.97,-1.144 c -1.809,-1.533 -3.222,-3.651 -4.2,-6.428 z m 4.645,7.074 -0.953,1.159 c 2.378,1.954 5.285,2.898 8.623,2.898 v -1.5 -1.5 c -2.741,0 -4.948,-0.761 -6.718,-2.216 z m 62.678,12.358 -0.77,1.288 0.009,0.005 z m -11.08,-11.932 -1.34,0.674 0.003,0.006 z m 0.043,-35.199 -1.334,-0.685 -0.002,0.003 z m 11.122,-11.889 0.764,1.291 0.005,-0.003 z m 32.131,-1.193 0.653,-1.35 v 0 z m 14.318,21.946 v 1.5 h 1.578 l -0.08,-1.576 z m -17.131,0 -1.484,0.219 0.19,1.281 h 1.294 z m -3.835,-7.884 -1.053,1.069 0.007,0.007 0.008,0.007 z m -15.426,-0.724 0.881,1.214 0.003,-0.002 z m -4.901,27.784 -1.398,0.543 0.005,0.012 z m 4.901,6.69 0.884,-1.211 v 0 z m 12.954,1.023 -0.68,-1.337 -0.009,0.005 z m 4.134,-3.707 -1.245,-0.837 -0.003,0.005 z m 2.173,-5.923 v -1.5 h -1.294 l -0.19,1.28 z m 17.131,0 1.497,0.085 0.091,-1.585 h -1.588 z m -4.091,13.21 -1.262,-0.81 -0.002,0.002 z m -10.014,8.863 -0.671,-1.341 v 0 z m -15.128,3.196 v -1.5 c -6.49,0 -11.983,-1.373 -16.541,-4.054 l -0.76,1.293 -0.761,1.293 c 5.102,3.001 11.143,4.468 18.062,4.468 z m -17.301,-4.261 0.769,-1.288 c -4.553,-2.721 -8.052,-6.485 -10.512,-11.324 l -1.337,0.68 -1.337,0.68 c 2.711,5.332 6.598,9.522 11.647,12.54 z m -11.08,-11.932 1.34,-0.674 c -2.435,-4.844 -3.675,-10.459 -3.675,-16.883 h -1.5 -1.5 c 0,6.816 1.317,12.905 3.995,18.231 z m -3.835,-17.557 h 1.5 c 0,-6.509 1.254,-12.148 3.713,-16.959 l -1.335,-0.683 -1.336,-0.682 c -2.711,5.303 -4.042,11.425 -4.042,18.324 z m 3.878,-17.642 1.334,0.686 c 2.488,-4.84 6,-8.591 10.552,-11.284 l -0.764,-1.291 -0.764,-1.291 c -5.051,2.989 -8.953,7.165 -11.692,12.495 z m 11.122,-11.889 0.769,1.288 c 4.529,-2.707 9.963,-4.092 16.362,-4.092 v -1.5 -1.5 c -6.84,0 -12.827,1.485 -17.901,4.517 z m 17.131,-4.304 v 1.5 c 5.528,0 10.297,1.004 14.347,2.961 l 0.653,-1.35 0.653,-1.35 c -4.53,-2.19 -9.761,-3.261 -15.653,-3.261 z m 15,3.111 -0.653,1.35 c 4.063,1.965 7.246,4.704 9.589,8.218 l 1.248,-0.832 1.248,-0.832 c -2.657,-3.986 -6.263,-7.071 -10.779,-9.254 z m 10.184,8.736 -1.248,0.832 c 2.332,3.498 3.64,7.633 3.884,12.454 l 1.498,-0.076 1.498,-0.076 c -0.268,-5.292 -1.716,-9.964 -4.384,-13.966 z m 4.134,13.21 v -1.5 h -17.131 v 1.5 1.5 h 17.131 z m -17.131,0 1.484,-0.219 c -0.524,-3.545 -1.932,-6.495 -4.281,-8.747 l -1.038,1.082 -1.038,1.083 c 1.798,1.725 2.947,4.031 3.389,7.02 z m -3.835,-7.884 1.053,-1.068 c -2.37,-2.337 -5.456,-3.457 -9.107,-3.457 v 1.5 1.5 c 2.997,0 5.28,0.897 7.001,2.594 z m -8.054,-3.025 v -1.5 c -3.103,0 -5.876,0.853 -8.256,2.589 l 0.884,1.212 0.884,1.212 c 1.824,-1.332 3.966,-2.013 6.488,-2.013 z m -7.372,2.301 -0.881,-1.214 c -2.348,1.705 -4.122,4.158 -5.369,7.26 l 1.392,0.559 1.392,0.56 c 1.082,-2.694 2.547,-4.644 4.347,-5.951 z m -4.858,6.605 -1.392,-0.559 c -1.255,3.122 -1.855,6.832 -1.855,11.085 h 1.5 1.5 c 0,-3.986 0.564,-7.293 1.639,-9.966 z m -1.747,10.526 h -1.5 c 0,4.304 0.584,8.05 1.806,11.196 l 1.398,-0.543 1.399,-0.543 c -1.051,-2.706 -1.603,-6.062 -1.603,-10.11 z m 1.704,10.653 -1.393,0.555 c 1.247,3.133 3.035,5.614 5.41,7.347 l 0.884,-1.212 0.884,-1.211 c -1.83,-1.336 -3.309,-3.315 -4.391,-6.034 z m 4.901,6.69 -0.884,1.212 c 2.38,1.737 5.153,2.59 8.256,2.59 v -1.5 -1.5 c -2.522,0 -4.664,-0.682 -6.488,-2.013 z m 7.372,2.302 v 1.5 c 2.285,0 4.387,-0.472 6.271,-1.446 l -0.689,-1.333 -0.689,-1.332 c -1.41,0.73 -3.03,1.111 -4.893,1.111 z m 5.582,-1.279 0.68,1.337 c 1.914,-0.973 3.485,-2.386 4.702,-4.212 l -1.248,-0.832 -1.248,-0.832 c -0.942,1.413 -2.127,2.471 -3.566,3.202 z m 4.134,-3.707 1.245,0.837 c 1.252,-1.862 2.044,-4.056 2.412,-6.541 l -1.484,-0.219 -1.484,-0.22 c -0.313,2.118 -0.97,3.873 -1.934,5.306 z m 2.173,-5.923 v 1.5 h 17.131 v -1.5 -1.5 h -17.131 z m 17.131,0 -1.498,-0.086 c -0.271,4.771 -1.566,8.919 -3.855,12.486 l 1.262,0.81 1.262,0.81 c 2.598,-4.047 4.029,-8.706 4.326,-13.935 z m -4.091,13.21 -1.264,-0.808 c -2.26,3.536 -5.386,6.312 -9.421,8.33 l 0.671,1.341 0.671,1.342 c 4.487,-2.244 8.037,-5.376 10.607,-9.397 z m -10.014,8.863 -0.671,-1.341 c -4.012,2.006 -8.815,3.037 -14.457,3.037 v 1.5 1.5 c 6.006,0 11.288,-1.099 15.799,-3.354 z m 66.502,-25.951 h -1.5 v 0.007 0.007 z m 0,-37.586 v -1.5 h -1.5 v 1.5 z m 18.154,0 h 1.5 v -1.5 h -1.5 z m 0,65.455 v 1.5 h 1.5 V 570 Z m -17.429,0 h -1.5 v 1.5 h 1.5 z m 0,-11.889 h 1.5 v -1.5 h -1.5 z m -0.682,0 v -1.5 h -1.03 l -0.37,0.961 z m -7.372,9.247 -0.842,-1.242 -0.005,0.003 z m -24.034,0.511 0.77,-1.287 v 0 z m -7.799,-8.48 -1.339,0.675 0.004,0.008 z m -2.812,-13.167 h -1.5 v 0.008 z m 0,-41.677 v -1.5 h -1.5 v 1.5 z m 18.153,0 h 1.5 v -1.5 h -1.5 z m 0,38.438 h -1.5 v 0.011 z m 3.111,9.162 1.109,-1.011 v 0 z m 14.361,1.875 0.694,1.329 0.008,-0.004 0.008,-0.004 z m 4.602,-4.517 -1.286,-0.772 -0.004,0.007 -0.004,0.007 z m 1.747,-7.372 h 1.5 v -37.586 h -1.5 -1.5 v 37.586 z m 0,-37.586 v 1.5 h 18.154 v -1.5 -1.5 H 601.21 Z m 18.154,0 h -1.5 V 570 h 1.5 1.5 v -65.455 z m 0,65.455 v -1.5 h -17.429 v 1.5 1.5 h 17.429 z m -17.429,0 h 1.5 v -11.889 h -1.5 -1.5 V 570 Z m 0,-11.889 v -1.5 h -0.682 v 1.5 1.5 h 0.682 z m -0.682,0 -1.4,-0.539 c -1.366,3.546 -3.627,6.385 -6.814,8.544 l 0.842,1.242 0.841,1.242 c 3.688,-2.5 6.342,-5.826 7.931,-9.95 z m -7.372,9.247 -0.847,-1.239 c -3.115,2.129 -6.968,3.233 -11.639,3.233 v 1.5 1.5 c 5.158,0 9.629,-1.225 13.332,-3.756 z m -12.486,3.494 v -1.5 c -4.14,0 -7.716,-0.938 -10.778,-2.77 l -0.77,1.287 -0.771,1.288 c 3.586,2.145 7.709,3.195 12.319,3.195 z m -11.548,-2.983 0.77,-1.287 c -3.068,-1.835 -5.478,-4.445 -7.233,-7.876 l -1.336,0.683 -1.335,0.683 c 1.995,3.899 4.783,6.942 8.363,9.085 z m -7.799,-8.48 1.34,-0.675 c -1.72,-3.413 -2.625,-7.563 -2.652,-12.501 l -1.5,0.009 -1.5,0.008 c 0.029,5.289 0.999,9.918 2.973,13.834 z m -2.812,-13.167 h 1.5 v -41.677 h -1.5 -1.5 v 41.677 z m 0,-41.677 v 1.5 h 18.153 v -1.5 -1.5 h -18.153 z m 18.153,0 h -1.5 v 38.438 h 1.5 1.5 v -38.438 z m 0,38.438 -1.5,0.011 c 0.031,4.129 1.145,7.575 3.502,10.161 l 1.109,-1.01 1.109,-1.011 c -1.734,-1.902 -2.693,-4.564 -2.72,-8.162 z m 3.111,9.162 -1.109,1.01 c 2.369,2.599 5.536,3.856 9.333,3.856 v -1.5 -1.5 c -3.077,0 -5.393,-0.987 -7.115,-2.877 z m 8.224,3.366 v 1.5 c 2.425,0 4.709,-0.553 6.831,-1.662 l -0.694,-1.329 -0.695,-1.33 c -1.685,0.881 -3.491,1.321 -5.442,1.321 z m 6.137,-1.491 0.71,1.321 c 2.162,-1.162 3.892,-2.87 5.186,-5.08 l -1.294,-0.758 -1.294,-0.758 c -1.035,1.767 -2.374,3.07 -4.018,3.954 z m 4.602,-4.517 1.286,0.772 c 1.369,-2.281 1.991,-5.028 1.961,-8.159 l -1.5,0.015 -1.5,0.014 c 0.027,2.721 -0.515,4.89 -1.533,6.586 z m 87.681,-26.293 0.093,1.497 1.605,-0.098 -0.211,-1.595 z m -16.619,1.023 -1.471,0.294 0.257,1.284 1.306,-0.081 z m -1.832,-3.835 -1.169,0.94 0.006,0.007 0.006,0.007 z m -3.708,-2.77 -0.64,1.356 0.016,0.008 0.015,0.007 z m -12.528,0.724 0.774,1.285 0.007,-0.004 0.007,-0.005 z m -1.023,8.651 -0.98,1.135 v 0 z m 6.435,2.599 -0.315,1.467 0.009,0.002 0.01,0.002 z m 11.846,2.387 0.302,-1.47 -0.005,-10e-4 z m 14.233,6.306 -1.02,1.1 v 0 z m 0.895,22.714 -1.182,-0.924 -0.005,0.007 z m -10.312,7.585 0.571,1.387 0.004,-0.002 z m -35.753,-2.728 -0.869,1.223 0.007,0.005 z m -8.992,-14.829 -0.078,-1.498 -1.635,0.086 0.228,1.621 z m 17.856,-0.938 1.469,-0.3 -0.258,-1.265 -1.29,0.067 z m 3.92,6.052 -0.836,1.245 0.006,0.004 0.006,0.004 z m 15.639,0.213 0.802,1.267 0.005,-0.003 z m 2.983,-4.816 1.5,0.022 v -0.024 -0.024 z m -2.088,-4.048 -0.931,1.176 0.008,0.006 0.007,0.006 z m -6.307,-2.472 0.294,-1.47 -10e-4,-10e-4 z m -11.335,-2.258 -0.294,1.471 h 10e-4 z m -14.276,-6.648 -1.07,1.051 0.005,0.005 z m -1.235,-22.926 -1.196,-0.905 -0.006,0.007 z m 9.673,-7.031 -0.551,-1.396 -0.003,0.002 z m 34.176,2.77 -0.889,1.207 0.003,0.003 z m 8.352,14.275 -0.092,-1.497 -16.619,1.023 0.092,1.497 0.092,1.497 16.62,-1.023 z m -16.619,1.023 1.471,-0.294 c -0.334,-1.668 -1.054,-3.172 -2.146,-4.496 l -1.157,0.955 -1.157,0.954 c 0.782,0.949 1.283,2.002 1.518,3.175 z m -1.832,-3.835 1.168,-0.941 c -1.104,-1.372 -2.541,-2.433 -4.266,-3.2 l -0.61,1.371 -0.609,1.371 c 1.343,0.597 2.378,1.382 3.148,2.339 z m -3.708,-2.77 0.64,-1.357 c -1.751,-0.826 -3.784,-1.209 -6.052,-1.209 v 1.5 1.5 c 1.938,0 3.512,0.328 4.772,0.922 z m -5.412,-1.066 v -1.5 c -3.024,0 -5.685,0.643 -7.904,2.014 l 0.788,1.276 0.788,1.276 c 1.644,-1.015 3.728,-1.566 6.328,-1.566 z m -7.116,1.79 -0.775,-1.284 c -2.301,1.387 -3.623,3.398 -3.623,5.972 h 1.5 1.5 c 0,-1.347 0.61,-2.461 2.172,-3.403 z m -2.898,4.688 h -1.5 c 0,2.026 0.836,3.752 2.395,5.098 l 0.98,-1.135 0.981,-1.135 c -0.942,-0.814 -1.356,-1.729 -1.356,-2.828 z m 1.875,3.963 -0.98,1.135 c 1.543,1.333 3.995,2.264 7.1,2.931 l 0.315,-1.467 0.315,-1.466 c -2.975,-0.64 -4.813,-1.443 -5.769,-2.268 z m 6.435,2.599 -0.296,1.471 11.846,2.386 0.296,-1.47 0.297,-1.471 -11.847,-2.386 z m 11.846,2.387 -0.301,1.469 c 6.225,1.278 10.67,3.299 13.514,5.937 l 1.02,-1.1 1.02,-1.099 c -3.405,-3.158 -8.449,-5.341 -14.951,-6.677 z m 14.233,6.306 -1.02,1.1 c 2.785,2.582 4.208,5.973 4.208,10.321 h 1.5 1.5 c 0,-5.084 -1.702,-9.307 -5.168,-12.52 z m 4.688,11.421 h -1.5 c 0,3.971 -1.162,7.407 -3.475,10.369 l 1.182,0.924 1.183,0.923 c 2.743,-3.515 4.11,-7.608 4.11,-12.216 z m -3.793,11.293 -1.187,-0.917 c -2.317,3.001 -5.529,5.383 -9.701,7.117 l 0.576,1.385 0.575,1.385 c 4.578,-1.903 8.241,-4.578 10.925,-8.054 z m -10.312,7.585 -0.571,-1.387 c -4.132,1.701 -8.946,2.571 -14.472,2.571 v 1.5 1.5 c 5.838,0 11.053,-0.919 15.614,-2.797 z m -15.043,2.684 v -1.5 c -8.47,0 -15.038,-1.764 -19.849,-5.139 l -0.861,1.227 -0.862,1.228 c 5.474,3.841 12.713,5.684 21.572,5.684 z m -20.71,-5.412 0.869,-1.222 c -4.775,-3.396 -7.552,-7.972 -8.375,-13.816 l -1.486,0.209 -1.485,0.209 c 0.938,6.655 4.156,11.966 9.608,15.843 z m -8.992,-14.829 0.079,1.498 17.855,-0.938 -0.078,-1.498 -0.079,-1.498 -17.855,0.938 z m 17.856,-0.938 -1.47,0.301 c 0.612,2.994 2.125,5.366 4.554,6.996 l 0.836,-1.245 0.836,-1.246 c -1.719,-1.154 -2.819,-2.816 -3.287,-5.106 z m 3.92,6.052 -0.824,1.253 c 2.383,1.567 5.349,2.292 8.793,2.292 v -1.5 -1.5 c -3.034,0 -5.38,-0.638 -7.145,-1.799 z m 7.969,2.045 v 1.5 c 3.359,0 6.224,-0.643 8.472,-2.065 l -0.802,-1.267 -0.801,-1.268 c -1.616,1.021 -3.864,1.6 -6.869,1.6 z m 7.67,-1.832 0.807,1.264 c 2.294,-1.463 3.639,-3.494 3.676,-6.058 l -1.5,-0.022 -1.5,-0.021 c -0.019,1.356 -0.663,2.535 -2.289,3.572 z m 2.983,-4.816 1.5,-0.026 c -0.037,-2.126 -0.966,-3.895 -2.672,-5.21 l -0.916,1.188 -0.916,1.188 c 1.021,0.787 1.484,1.718 1.504,2.886 z m -2.088,-4.048 0.931,-1.176 c -1.634,-1.294 -4.006,-2.179 -6.944,-2.766 l -0.294,1.47 -0.294,1.471 c 2.744,0.549 4.577,1.312 5.67,2.177 z m -6.307,-2.472 0.293,-1.471 -11.335,-2.258 -0.293,1.471 -0.293,1.471 11.335,2.258 z m -11.335,-2.258 0.294,-1.471 c -6.229,-1.246 -10.666,-3.369 -13.504,-6.233 l -1.066,1.056 -1.065,1.056 c 3.412,3.443 8.492,5.752 15.047,7.063 z m -14.276,-6.648 1.071,-1.051 c -2.791,-2.842 -4.215,-6.47 -4.215,-11.009 h -1.5 -1.5 c 0,5.235 1.672,9.646 5.074,13.111 z m -4.644,-12.06 h 1.5 c 0,-3.917 1.052,-7.215 3.11,-9.968 l -1.201,-0.898 -1.202,-0.898 c -2.487,3.327 -3.707,7.273 -3.707,11.764 z m 3.409,-10.866 1.196,0.905 c 2.109,-2.786 5.094,-4.978 9.031,-6.542 l -0.554,-1.394 -0.554,-1.394 c -4.358,1.731 -7.822,4.226 -10.315,7.52 z m 9.673,-7.031 0.551,1.395 c 3.963,-1.564 8.655,-2.367 14.108,-2.367 v -1.5 -1.5 c -5.74,0 -10.821,0.845 -15.21,2.576 z m 14.659,-2.472 v 1.5 c 8.073,0 14.226,1.708 18.628,4.949 l 0.889,-1.207 0.89,-1.208 c -5.088,-3.747 -11.945,-5.534 -20.407,-5.534 z m 19.517,5.242 -0.886,1.21 c 4.433,3.245 7.008,7.632 7.751,13.262 l 1.487,-0.197 1.487,-0.196 c -0.847,-6.416 -3.84,-11.546 -8.953,-15.29 z"
     fill="#0d319c"
     mask="url(#path-3-outside-2_1691_6621)"
     id="path6"
     transform="translate(4,56)" />
  <path
     d="m 346.429,373.244 c 0.039,-0.756 0.041,-11.093 0.001,-22.973 l -0.07,-21.599 h -3.642 c -6.97,0 -23.923,1.599 -39.585,3.734 -10.293,1.404 -11.614,1.625 -20.489,3.439 -14.273,2.916 -22.313,4.859 -30.235,7.31 -3.436,1.063 -7.933,2.422 -9.994,3.021 -4.452,1.294 -12.208,3.718 -21.489,6.715 -16.189,5.227 -18.839,5.979 -20.992,5.954 -2.606,-0.031 -4.719,-1.223 -5.77,-3.255 -1.449,-2.801 -1.022,-3.799 4.79,-11.187 3.027,-3.845 6.79,-8.787 8.364,-10.982 1.575,-2.195 3.349,-4.667 3.942,-5.493 1.77,-2.469 12.809,-19.619 15.915,-24.725 8.569,-14.091 21.577,-39.401 28.492,-55.434 13.337,-30.933 24.904,-67.72 29.992,-95.385 0.733,-3.9832 1.407,-7.3662 1.501,-7.519 0.211,-0.3446 2.975,-19.5645 3.694,-25.6911 2.255,-19.1899 2.832,-26.9556 3.3,-44.4466 0.176,-6.5921 0.548,-12.73369 0.828,-13.64659 0.571,-1.87075 2.931,-3.57771 4.949,-3.58071 4.696,-0.007 19.811,7.93347 35.935,18.8763 9.272,6.2935 11.856,8.2401 19.865,14.973 3.63,3.0504 4.594,3.1383 7.142,5.6033 0.396,0.3837 0.61,0.6078 0.999,0.9988 3.038,3.0501 3.116,3.4009 7.633,7.9525 8.075,8.1372 17.987,19.8871 23.408,27.7526 1.515,2.1974 3.973,5.7571 5.461,7.9105 9.881,14.2918 20.074,34.563 28.515,56.71 1.612,4.229 3.481,9.622 4.154,11.985 18.538,65.02 13.199,116.217 8.209,125.205 -1.657,1.5 -4.31,1.296 -16.501,-1.27 -18.77,-3.95 -36.513,-5.756 -53.404,-5.433 l -8.245,0.158 -0.13,21.544 -0.13,21.543 -3.368,0.598 c -1.853,0.329 -4.99,0.915 -6.971,1.304 -5.432,1.065 -6.161,0.985 -6.074,-0.667 z"
     fill="#1f53ba"
     stroke="#0d319c"
     stroke-width="3"
     id="path7" />
  <path
     d="m 262.449,479.256 c -47.868,-0.328 -45.057,-0.147 -53.193,-3.432 -12.742,-5.146 -25.831,-18.209 -34.086,-34.017 -5.791,-11.093 -10.67,-27.192 -10.67,-35.209 0,-2.99 2.281,-7.124 4.818,-8.732 2.623,-1.662 2.965,-1.717 18.92,-3.016 6.871,-0.559 16.429,-1.443 21.239,-1.965 4.809,-0.523 11.331,-1.214 14.492,-1.536 13.051,-1.336 48.603,-6.297 71.713,-10.007 8.52,-1.369 17.066,-2.719 18.99,-3.004 1.924,-0.283 5.747,-0.93 8.495,-1.438 2.749,-0.507 11.631,-2.352 14.243,-2.826 5.422,-0.984 -1.875,0.454 0,0 0.914,-0.222 2.998,-0.5 2.998,-0.5 0,0 5.023,-0.47 7.496,-0.998 6.247,-1.335 12.565,-3.31 17.468,-3.451 0,0 -0.039,0.058 2.022,-0.369 2.061,-0.429 6.559,-1.257 9.995,-1.842 3.436,-0.585 7.821,-1.392 9.745,-1.796 1.924,-0.401 11.032,-2.184 20.239,-3.961 9.208,-1.777 18.879,-3.671 21.489,-4.209 2.611,-0.537 6.885,-1.349 9.495,-1.804 2.611,-0.455 7.109,-1.349 9.995,-1.987 2.887,-0.64 7.271,-1.53 9.745,-1.981 2.474,-0.45 6.858,-1.357 9.745,-2.015 2.886,-0.658 7.833,-1.664 10.994,-2.235 3.162,-0.571 7.546,-1.464 9.745,-1.986 2.199,-0.52 6.247,-1.425 8.995,-2.01 4.764,-1.015 13.014,-2.816 19.49,-4.257 5.638,-1.255 9.367,-0.508 9.367,-0.508 0,0 1.89,0.298 2.877,0.951 1.401,0.926 1.765,2 2.448,3.533 1.274,2.861 0.521,8.002 0.521,8.002 0,0 -0.86,7.695 -2.469,12.436 -0.066,0.194 -1,3.496 -1,3.496 -0.438,1.988 -1.065,2.883 -1.499,4.994 -0.268,1.304 -0.993,2.042 -1.346,3.341 -0.238,0.873 -0.345,1.371 -0.635,2.228 -0.603,1.777 -1.517,4.419 -1.517,4.419 0,0 -7.514,19.286 -8.502,21.539 -0.482,1.098 -1.608,3.683 -2.503,5.743 -0.896,2.059 -3.291,6.956 -5.324,10.882 -2.032,3.925 -4.161,8.44 -4.161,8.44 0,0 -5.497,9.329 -6.861,10.974 -1.364,1.646 -6.132,6.844 -6.132,6.844 0,0 -3.657,4.31 -5.493,6.56 l -1.503,1.93 -3.498,3.995 -2.499,1.998 -4.69,2.905 -0.225,0.207 -2.581,1.882 c -6.949,4.785 -15.9,7.454 -19.74,8.783 -4.47,1.547 -11.888,3.42 -17.241,4.356 -4.237,0.74 -11.315,0.836 -65.716,0.89 -33.532,0.034 -80.646,-0.073 -104.695,-0.237 z"
     fill="#97302b"
     id="path8" />
  <path
     d="m 337.41,374.074 c -2.612,0.474 -11.494,2.319 -14.243,2.826 -2.748,0.508 -6.571,1.155 -8.495,1.438 -1.924,0.285 -10.47,1.635 -18.99,3.004 -23.11,3.71 -58.662,8.671 -71.713,10.007 -3.161,0.322 -9.683,1.013 -14.492,1.536 -4.81,0.522 -14.368,1.406 -21.239,1.965 -15.955,1.299 -16.297,1.354 -18.92,3.016 -2.537,1.608 -4.818,5.742 -4.818,8.732 0,8.017 4.879,24.116 10.67,35.209 8.255,15.808 21.344,28.871 34.086,34.017 8.136,3.285 5.325,3.104 53.193,3.432 24.049,0.164 71.163,0.271 104.695,0.237 54.401,-0.054 61.479,-0.15 65.716,-0.89 5.353,-0.936 12.771,-2.809 17.241,-4.356 3.84,-1.329 12.791,-3.998 19.74,-8.783 l 2.581,-1.882 0.225,-0.207 c 15.941,-9.874 28.754,-31.784 34.837,-43.646 2.033,-3.926 4.428,-8.823 5.324,-10.882 0.895,-2.06 2.021,-4.645 2.503,-5.743 0.988,-2.253 8.502,-21.539 8.502,-21.539 0,0 0.914,-2.642 1.517,-4.419 0.29,-0.857 0.397,-1.355 0.635,-2.228 0.353,-1.299 1.078,-2.037 1.346,-3.341 0.434,-2.111 1.061,-3.006 1.499,-4.994 0,0 0.934,-3.302 1,-3.496 1.609,-4.741 2.469,-12.436 2.469,-12.436 0,0 0.753,-5.141 -0.521,-8.002 -0.683,-1.533 -1.047,-2.607 -2.448,-3.533 -0.987,-0.653 -2.877,-0.951 -2.877,-0.951 0,0 -3.729,-0.747 -9.367,0.508 -6.476,1.441 -14.726,3.242 -19.49,4.257 -2.748,0.585 -6.796,1.49 -8.995,2.01 -2.199,0.522 -6.583,1.415 -9.745,1.986 -3.161,0.571 -8.108,1.577 -10.994,2.235 -2.887,0.658 -7.271,1.565 -9.745,2.015 -2.474,0.451 -6.858,1.341 -9.745,1.981 -2.886,0.638 -7.384,1.532 -9.995,1.987 -2.61,0.455 -6.884,1.267 -9.495,1.804 -2.61,0.538 -12.281,2.432 -21.489,4.209 -9.207,1.777 -18.315,3.56 -20.239,3.961 -1.924,0.404 -6.309,1.211 -9.745,1.796 -3.436,0.585 -7.934,1.413 -9.995,1.842 -2.061,0.427 -2.022,0.369 -2.022,0.369 -4.903,0.141 -11.221,2.116 -17.468,3.451 -2.473,0.528 -7.496,0.998 -7.496,0.998 0,0 -2.084,0.278 -2.998,0.5 z m 0,0 c -1.875,0.454 5.422,-0.984 0,0 z"
     stroke="#82121c"
     stroke-width="3"
     id="path9" />
</svg>
